<?xml version="1.0" standalone="no"?>
<!DOCTYPE svg PUBLIC "-//W3C//DTD SVG 20010904//EN"
 "http://www.w3.org/TR/2001/REC-SVG-20010904/DTD/svg10.dtd">
<svg version="1.0" xmlns="http://www.w3.org/2000/svg"
 width="94.000000pt" height="94.000000pt" viewBox="0 0 94.000000 94.000000"
 preserveAspectRatio="xMidYMid meet">
<metadata>
Created by potrace 1.11, written by Peter Selinger 2001-2013
</metadata>
<g transform="translate(0.000000,94.000000) scale(0.100000,-0.100000)"
fill="#000000" stroke="none">
<path d="M195 920 c-8 -9 -15 -24 -15 -32 0 -9 -12 -18 -30 -21 -24 -5 -30
-12 -31 -34 0 -16 -1 -203 -1 -416 0 -282 3 -392 11 -400 7 -7 56 -12 134 -13
129 -1 157 8 157 48 0 10 7 18 18 18 36 0 45 16 46 86 l1 69 73 2 c76 1 102
13 102 44 0 11 5 20 10 20 6 1 15 2 22 3 23 2 34 45 33 131 -1 63 -5 89 -16
96 -8 5 -62 9 -120 9 l-107 0 0 40 -1 40 47 1 c26 1 72 1 102 0 96 -1 118 6
125 39 5 23 12 30 31 30 30 0 36 24 37 141 0 56 -4 94 -12 102 -8 8 -94 11
-307 12 -259 1 -297 -1 -309 -15z"/>
</g>
</svg>
