<?xml version="1.0" encoding="utf-8"?>
<!-- Generator: Adobe Illustrator 19.0.0, SVG Export Plug-In . SVG Version: 6.00 Build 0)  -->
<svg version="1.1" id="Capa_1" xmlns="http://www.w3.org/2000/svg" xmlns:xlink="http://www.w3.org/1999/xlink" x="0px" y="0px"
	 viewBox="0 0 90 19" style="enable-background:new 0 0 90 19;" xml:space="preserve">
<style type="text/css">
	.st0{stroke:#000000;stroke-width:0.7;}
	.st1{fill:#FFD62D;stroke:#000000;stroke-width:0.7;}
</style>
<g id="XMLID_1_">
	<g id="XMLID_29_">
		<path id="XMLID_30_" class="st0" d="M12,1.5c0.1,0,0.3,0,0.4,0.1c0.1,0.1,0.2,0.2,0.2,0.4v3.6c0,0.1,0,0.2-0.1,0.4
			S12.2,6.2,12,6.2H5.5v3.6H10c0.1,0,0.3,0,0.4,0.1c0.1,0.1,0.2,0.2,0.2,0.4v3.2c0,0.1,0,0.2-0.1,0.4c-0.1,0.1-0.2,0.2-0.4,0.2H5.5
			v4.1c0,0.3-0.2,0.5-0.6,0.5H0.3c-0.1,0-0.2-0.1-0.3-0.2C0,18.4,0,18.3,0,18.2V2c0-0.1,0-0.1,0-0.2c0,0,0,0,0-0.1
			c0.1-0.1,0.1-0.1,0.2-0.2c0-0.1,0.1-0.1,0.2-0.1H12z"/>
		<path id="XMLID_32_" class="st0" d="M27.7,13.7c0.1,0,0.3,0,0.4,0.1c0.1,0.1,0.2,0.2,0.2,0.4v3.9c0,0.1,0,0.1,0,0.2
			c0,0.1-0.1,0.1-0.1,0.2c0,0.1-0.1,0.1-0.2,0.1c-0.1,0-0.1,0.1-0.2,0.1h-12c-0.3,0-0.5-0.2-0.5-0.5V2c0-0.1,0-0.3,0.1-0.4
			c0.1-0.1,0.2-0.2,0.4-0.2H20c0.1,0,0.1,0,0.2,0c0.1,0,0.1,0.1,0.2,0.1c0.1,0,0.1,0.1,0.1,0.2c0,0.1,0.1,0.1,0.1,0.2v11.7H27.7z"/>
		<path id="XMLID_34_" class="st0" d="M47.7,18.2c0.1,0.3,0,0.5-0.3,0.5H43c-0.4,0-0.6-0.2-0.8-0.5l-0.6-2h-4.9l-0.6,2
			c-0.1,0.3-0.4,0.5-0.8,0.5h-4.4c-0.3,0-0.4-0.2-0.3-0.5L36.3,2c0-0.1,0.1-0.2,0.2-0.3c0.1-0.1,0.2-0.2,0.4-0.2h4.6
			c0.1,0,0.3,0.1,0.4,0.2C41.9,1.8,42,1.9,42,2L47.7,18.2z M38.1,11.9h2.2l-1.1-4.4L38.1,11.9z"/>
		<path id="XMLID_37_" class="st0" d="M69.6,18.2L69.6,18.2c0,0.4-0.2,0.5-0.5,0.5h-4.4c-0.4,0-0.6-0.2-0.6-0.5l-0.6-6.7L62,18.2
			c0,0.1-0.1,0.2-0.2,0.3c-0.1,0.1-0.2,0.2-0.3,0.2h-4.1c-0.1,0-0.2,0-0.3-0.2c-0.1-0.1-0.2-0.2-0.2-0.4l-1.5-6.7l-0.6,6.7
			c0,0.3-0.2,0.5-0.6,0.5h-4.4c-0.3,0-0.5-0.2-0.5-0.5v-0.1L50.8,2c0-0.1,0.1-0.3,0.2-0.4c0.1-0.1,0.2-0.2,0.4-0.2h5.4
			c0.3,0,0.6,0.2,0.7,0.5l1.9,8.1l2-8.1c0.1-0.3,0.3-0.5,0.7-0.5h5.4c0.2,0,0.3,0.1,0.4,0.2C67.9,1.8,68,1.9,68,2L69.6,18.2z"/>
		<path id="XMLID_39_" class="st0" d="M88.5,18.2c0.1,0.3,0,0.5-0.3,0.5h-4.4c-0.4,0-0.6-0.2-0.8-0.5l-0.6-2h-4.9l-0.6,2
			c-0.1,0.3-0.4,0.5-0.8,0.5h-4.4c-0.3,0-0.4-0.2-0.3-0.5L77,2c0-0.1,0.1-0.2,0.2-0.3c0.1-0.1,0.2-0.2,0.4-0.2h4.6
			c0.1,0,0.3,0.1,0.4,0.2c0.1,0.1,0.2,0.2,0.2,0.3L88.5,18.2z M78.8,11.9H81l-1.1-4.4L78.8,11.9z"/>
	</g>
	<g id="XMLID_28_">
		<path id="XMLID_52_" class="st1" d="M13.5,0.3c0.1,0,0.3,0,0.4,0.1C13.9,0.5,14,0.7,14,0.8v3.6c0,0.1,0,0.2-0.1,0.4S13.6,5,13.5,5
			H7v3.6h4.4c0.1,0,0.3,0,0.4,0.1C11.9,8.8,12,9,12,9.1v3.2c0,0.1,0,0.2-0.1,0.4c-0.1,0.1-0.2,0.2-0.4,0.2H7V17
			c0,0.3-0.2,0.5-0.6,0.5H1.8c-0.1,0-0.2-0.1-0.3-0.2c-0.1-0.1-0.1-0.2-0.1-0.3V0.8c0-0.1,0-0.1,0-0.2c0,0,0,0,0-0.1
			c0.1-0.1,0.1-0.1,0.2-0.2c0-0.1,0.1-0.1,0.2-0.1H13.5z"/>
		<path id="XMLID_50_" class="st1" d="M29.2,12.6c0.1,0,0.3,0,0.4,0.1c0.1,0.1,0.2,0.2,0.2,0.4v3.9c0,0.1,0,0.1,0,0.2
			c0,0.1-0.1,0.1-0.1,0.2c0,0.1-0.1,0.1-0.2,0.1c-0.1,0-0.1,0.1-0.2,0.1h-12c-0.3,0-0.5-0.2-0.5-0.5V0.8c0-0.1,0-0.3,0.1-0.4
			c0.1-0.1,0.2-0.2,0.4-0.2h4.3c0.1,0,0.1,0,0.2,0c0.1,0,0.1,0.1,0.2,0.1c0.1,0,0.1,0.1,0.1,0.2C22,0.7,22,0.8,22,0.8v11.7H29.2z"/>
		<path id="XMLID_47_" class="st1" d="M49.2,17c0.1,0.3,0,0.5-0.3,0.5h-4.4c-0.4,0-0.6-0.2-0.8-0.5l-0.6-2h-4.9l-0.6,2
			c-0.1,0.3-0.4,0.5-0.8,0.5h-4.4c-0.3,0-0.4-0.2-0.3-0.5l5.7-16.1c0-0.1,0.1-0.2,0.2-0.3c0.1-0.1,0.2-0.2,0.4-0.2h4.6
			c0.1,0,0.3,0.1,0.4,0.2c0.1,0.1,0.2,0.2,0.2,0.3L49.2,17z M39.5,10.7h2.2l-1.1-4.4L39.5,10.7z"/>
		<path id="XMLID_45_" class="st1" d="M71.1,17L71.1,17c0,0.4-0.2,0.5-0.5,0.5h-4.4c-0.4,0-0.6-0.2-0.6-0.5l-0.6-6.7L63.4,17
			c0,0.1-0.1,0.2-0.2,0.3c-0.1,0.1-0.2,0.2-0.3,0.2h-4.1c-0.1,0-0.2,0-0.3-0.2c-0.1-0.1-0.2-0.2-0.2-0.4l-1.5-6.7L56.2,17
			c0,0.3-0.2,0.5-0.6,0.5h-4.4c-0.3,0-0.5-0.2-0.5-0.5V17l1.6-16.1c0-0.1,0.1-0.3,0.2-0.4c0.1-0.1,0.2-0.2,0.4-0.2h5.4
			c0.3,0,0.6,0.2,0.7,0.5l1.9,8.1l2-8.1c0.1-0.3,0.3-0.5,0.7-0.5h5.4c0.2,0,0.3,0.1,0.4,0.2c0.1,0.1,0.2,0.2,0.2,0.4L71.1,17z"/>
		<path id="XMLID_42_" class="st1" d="M89.9,17c0.1,0.3,0,0.5-0.3,0.5h-4.4c-0.4,0-0.6-0.2-0.8-0.5l-0.6-2h-4.9l-0.6,2
			c-0.1,0.3-0.4,0.5-0.8,0.5h-4.4c-0.3,0-0.4-0.2-0.3-0.5l5.7-16.1c0-0.1,0.1-0.2,0.2-0.3c0.1-0.1,0.2-0.2,0.4-0.2h4.6
			c0.1,0,0.3,0.1,0.4,0.2c0.1,0.1,0.2,0.2,0.2,0.3L89.9,17z M80.3,10.7h2.2l-1.1-4.4L80.3,10.7z"/>
	</g>
</g>
</svg>
