<svg xmlns="http://www.w3.org/2000/svg" viewBox="0 0 1920 1080"><style>.st1{opacity:0;fill:#f6f6f6}.st2{fill:none;stroke:#000;stroke-width:5;stroke-linecap:round;stroke-linejoin:round;stroke-miterlimit:10}.st3{opacity:.3}.st4,.st5{fill:none;stroke:#000;stroke-miterlimit:10}.st5{opacity:.3}</style><g id="Capa_1"><path id="XMLID_1_" fill="#ffd62d" d="M0 0h1920v1080H0z"/></g><g id="Capa_2"><path id="XMLID_194_" class="st1" d="M0 4.1h577.1v576.6H0z"/><g id="XMLID_191_"><path id="XMLID_193_" class="st2" d="M201.9 119.1l-15.3-14.3"/><path id="XMLID_192_" class="st2" d="M187.1 119.6l14.3-15.3"/></g><g id="XMLID_188_"><path id="XMLID_190_" class="st2" d="M219.4 338.5l-15.3-14.3"/><path id="XMLID_189_" class="st2" d="M204.6 339l14.3-15.2"/></g><g id="XMLID_185_"><path id="XMLID_187_" class="st2" d="M33.8 461.1l-15.2-14.3"/><path id="XMLID_186_" class="st2" d="M19 461.6l14.3-15.2"/></g><g id="XMLID_182_"><path id="XMLID_184_" class="st2" d="M27.1 98.2L11.9 83.9"/><path id="XMLID_183_" class="st2" d="M12.4 98.7l14.3-15.2"/></g><g id="XMLID_179_"><path id="XMLID_181_" class="st2" d="M569.6 118.7l-15.3-14.3"/><path id="XMLID_180_" class="st2" d="M554.8 119.2l14.3-15.2"/></g><g id="XMLID_176_"><path id="XMLID_178_" class="st2" d="M389.6 196.5l-15.2-14.3"/><path id="XMLID_177_" class="st2" d="M374.8 197l14.4-15.2"/></g><g id="XMLID_173_"><path id="XMLID_175_" class="st2" d="M464 366.4L448.7 352"/><path id="XMLID_174_" class="st2" d="M449.2 366.8l14.3-15.2"/></g><g id="XMLID_170_"><path id="XMLID_172_" class="st2" d="M452.1 504.7l-15.2-14.3"/><path id="XMLID_171_" class="st2" d="M437.4 505.2l14.3-15.3"/></g><path id="XMLID_169_" class="st2" d="M315.2 142l-10.5-18.2-10.5 18.2-10.4 18.2h41.9z"/><path id="XMLID_168_" class="st2" d="M280.5 364L270 345.8 259.5 364 249 382.2h42z"/><path id="XMLID_167_" class="st2" d="M400.8 432.2L390.3 414l-10.4 18.2-10.5 18.2 21-.1h20.9z"/><path id="XMLID_166_" class="st2" d="M470.1 292.7l5.4-20.2-20.3 5.4-20.2 5.5 14.8 14.8 14.8 14.8z"/><path id="XMLID_165_" class="st2" d="M125.1 57.5l5.4-20.3-20.2 5.4L90 48.1l14.9 14.8 14.8 14.8z"/><path id="XMLID_164_" class="st2" d="M110.8 495.4l5.4-20.3-20.3 5.4-20.2 5.5 14.8 14.8 14.9 14.8z"/><path id="XMLID_163_" class="st2" d="M491.3 80.1l18.2-10.5-18.2-10.5-18.2-10.5v42z"/><path id="XMLID_162_" class="st2" d="M110.3 289.6l18.2-10.5-18.2-10.4-18.2-10.5v42z"/><circle id="XMLID_161_" class="st2" cx="334.7" cy="255.3" r="15.9"/><circle id="XMLID_160_" class="st2" cx="254.3" cy="77.7" r="15.9"/><circle id="XMLID_159_" class="st2" cx="264.5" cy="547.4" r="15.9"/><path id="XMLID_158_" class="st2" d="M323 523.6c0-8.8 7.1-15.9 15.9-15.9s15.9 7.1 15.9 15.9"/><path id="XMLID_157_" class="st2" d="M196 279.2c0-8.8 7.1-15.9 15.9-15.9s15.9 7.1 15.9 15.9"/><path id="XMLID_156_" class="st2" d="M28.5 150c0-8.8 7.1-15.9 15.8-15.9 8.7 0 15.8 7.1 15.8 15.9"/><path id="XMLID_155_" class="st2" d="M429.7 176c-8.8 0-15.9-7.1-15.9-15.8 0-8.7 7.1-15.8 15.9-15.8"/><path id="XMLID_154_" class="st2" d="M46.5 547.3c-8.8 0-15.9-7.1-15.9-15.8 0-8.7 7.1-15.8 15.9-15.8"/><path id="XMLID_153_" class="st2" d="M217.2 41.2c-8.8 0-15.9-7.1-15.9-15.8 0-8.7 7.1-15.8 15.9-15.8"/><circle id="XMLID_152_" class="st2" cx="38.5" cy="379.9" r="15.9"/><circle id="XMLID_151_" class="st2" cx="529.2" cy="398.1" r="15.9"/><path id="XMLID_150_" class="st2" d="M501.1 144.4h31.7v31.7h-31.7z"/><path id="XMLID_149_" class="st2" d="M143.3 160.2H175v31.7h-31.7z"/><path id="XMLID_148_" class="st2" d="M141.7 362.3h31.7V394h-31.7z"/><path id="XMLID_147_" class="st2" d="M501.1 515.6h31.7v31.7h-31.7z"/><path id="XMLID_146_" class="st2" d="M369.8 9.5h31.7v31.7h-31.7z"/><g id="XMLID_140_"><path id="XMLID_145_" class="st2" d="M324.4 331.4c-6.9 0-5.7-12.3-14.5-12.3"/><path id="XMLID_144_" class="st2" d="M353.4 331.4c-6.9 0-5.7-12.3-14.5-12.3"/><path id="XMLID_143_" class="st2" d="M324.4 331.4c6.9 0 5.7-12.3 14.5-12.3"/><path id="XMLID_141_" class="st2" d="M353.4 331.4c6.9 0 5.7-12.3 14.5-12.3"/></g><g id="XMLID_134_"><path id="XMLID_139_" class="st2" d="M407.2 559.6c-6.9 0-5.7-12.3-14.5-12.3"/><path id="XMLID_138_" class="st2" d="M436.2 559.6c-6.9 0-5.7-12.3-14.5-12.3"/><path id="XMLID_137_" class="st2" d="M407.2 559.6c6.9 0 5.7-12.3 14.5-12.3"/><path id="XMLID_135_" class="st2" d="M436.2 559.6c6.9 0 5.7-12.3 14.5-12.3"/></g><g id="XMLID_128_"><path id="XMLID_133_" class="st2" d="M446.8 230.6c-6.9 0-5.7-12.3-14.5-12.3"/><path id="XMLID_132_" class="st2" d="M475.9 230.6c-6.9 0-5.7-12.3-14.5-12.3"/><path id="XMLID_131_" class="st2" d="M446.8 230.6c6.9 0 5.7-12.3 14.5-12.3"/><path id="XMLID_129_" class="st2" d="M475.9 230.6c6.9 0 5.7-12.3 14.5-12.3"/></g><g id="XMLID_122_"><path id="XMLID_127_" class="st2" d="M42.5 215.8c-6.9 0-5.7-12.3-14.5-12.3"/><path id="XMLID_126_" class="st2" d="M71.6 215.8c-6.9 0-5.7-12.3-14.5-12.3"/><path id="XMLID_125_" class="st2" d="M42.5 215.8c6.9 0 5.7-12.3 14.5-12.3"/><path id="XMLID_123_" class="st2" d="M71.6 215.8c6.9 0 5.7-12.3 14.5-12.3"/></g><g id="XMLID_116_"><path id="XMLID_121_" class="st2" d="M326.8 51.7c0 6.9-12.3 5.7-12.3 14.5"/><path id="XMLID_120_" class="st2" d="M326.8 22.7c0 6.9-12.3 5.7-12.3 14.5"/><path id="XMLID_119_" class="st2" d="M326.8 51.7c0-6.9-12.3-5.7-12.3-14.5"/><path id="XMLID_117_" class="st2" d="M326.8 22.7c0-6.9-12.3-5.7-12.3-14.5"/></g><g id="XMLID_110_"><path id="XMLID_115_" class="st2" d="M237.6 203.8c0 6.9-12.3 5.7-12.3 14.5"/><path id="XMLID_114_" class="st2" d="M237.6 174.7c0 6.9-12.3 5.7-12.3 14.5"/><path id="XMLID_113_" class="st2" d="M237.6 203.8c0-6.9-12.3-5.7-12.3-14.5"/><path id="XMLID_111_" class="st2" d="M237.6 174.7c0-6.9-12.3-5.7-12.3-14.5"/></g><g id="XMLID_104_"><path id="XMLID_109_" class="st2" d="M479.2 446.7c0 6.9-12.3 5.7-12.3 14.5"/><path id="XMLID_108_" class="st2" d="M479.2 417.7c0 6.9-12.3 5.7-12.3 14.5"/><path id="XMLID_107_" class="st2" d="M479.2 446.7c0-6.9-12.3-5.7-12.3-14.5"/><path id="XMLID_105_" class="st2" d="M479.2 417.7c0-6.9-12.3-5.7-12.3-14.5"/></g><g id="XMLID_98_"><path id="XMLID_103_" class="st2" d="M179.4 469.6c0 6.9-12.3 5.7-12.3 14.5"/><path id="XMLID_102_" class="st2" d="M179.4 440.6c0 6.9-12.3 5.7-12.3 14.5"/><path id="XMLID_101_" class="st2" d="M179.4 469.6c0-6.9-12.3-5.7-12.3-14.5"/><path id="XMLID_99_" class="st2" d="M179.4 440.6c0-6.9-12.3-5.7-12.3-14.5"/></g><path id="XMLID_97_" class="st2" d="M359.2 364h35.9"/><path id="XMLID_96_" class="st2" d="M6.6 260.4h35.8"/><path id="XMLID_95_" class="st2" d="M361.9 93.6h35.8"/><path id="XMLID_94_" class="st2" d="M503.3 12.7h35.8"/><path id="XMLID_93_" class="st2" d="M149.6 547.3h35.8"/><path id="XMLID_92_" class="st2" d="M241.7 478l25.3-25.4"/><path id="XMLID_91_" class="st2" d="M31.7 38l25.4-25.3"/><path id="XMLID_90_" class="st2" d="M521.2 298.1l25.4-25.4"/><g id="XMLID_9_" class="st3"><path id="XMLID_89_" class="st4" d="M338 155.4l-10.5-18.2-10.4 18.2-10.5 18.1h41.9z"/><path id="XMLID_88_" class="st4" d="M303.3 377.4l-10.5-18.2-10.5 18.2-10.4 18.1h41.9z"/><path id="XMLID_87_" class="st4" d="M423.7 445.5l-10.5-18.1-10.5 18.1-10.5 18.2h42z"/><path id="XMLID_86_" class="st4" d="M492.9 306.1l5.4-20.3-20.3 5.5-20.2 5.4 14.8 14.8 14.9 14.9z"/><path id="XMLID_85_" class="st4" d="M147.9 70.8l5.5-20.3-20.3 5.5-20.3 5.4 14.9 14.9 14.8 14.8z"/><path id="XMLID_84_" class="st4" d="M133.6 508.7l5.4-20.2-20.3 5.4-20.2 5.5 14.8 14.8 14.9 14.8z"/><path id="XMLID_83_" class="st4" d="M514.1 93.5L532.3 83l-18.2-10.5L495.9 62l.1 21v21z"/><path id="XMLID_82_" class="st4" d="M133.1 303l18.2-10.5-18.2-10.5-18.2-10.4.1 20.9v21z"/><circle id="XMLID_81_" class="st4" cx="357.6" cy="268.7" r="15.9"/><circle id="XMLID_80_" class="st4" cx="277.2" cy="91.1" r="15.9"/><circle id="XMLID_79_" class="st4" cx="287.3" cy="560.7" r="15.9"/><path id="XMLID_78_" class="st4" d="M345.8 537c0-8.8 7.1-15.9 15.9-15.9s15.9 7.1 15.9 15.9"/><path id="XMLID_77_" class="st4" d="M218.8 292.5c0-8.8 7.1-15.9 15.9-15.9s15.9 7.1 15.9 15.9"/><path id="XMLID_76_" class="st4" d="M51.4 163.3c0-8.8 7.1-15.9 15.8-15.9 8.7 0 15.8 7.1 15.8 15.9"/><path id="XMLID_75_" class="st4" d="M452.5 189.4c-8.8 0-15.9-7.1-15.9-15.8 0-8.7 7.1-15.8 15.9-15.8"/><path id="XMLID_74_" class="st4" d="M69.3 560.7c-8.8 0-15.9-7.1-15.9-15.8 0-8.7 7.1-15.8 15.9-15.8"/><path id="XMLID_73_" class="st4" d="M240.1 54.6c-8.8 0-15.9-7.1-15.9-15.8S231.3 23 240.1 23"/><circle id="XMLID_72_" class="st4" cx="61.3" cy="393.3" r="15.9"/><circle id="XMLID_71_" class="st4" cx="552.1" cy="411.5" r="15.9"/><path id="XMLID_70_" class="st4" d="M524 157.7h31.7v31.7H524z"/><path id="XMLID_69_" class="st4" d="M166.1 173.5h31.7v31.7h-31.7z"/><path id="XMLID_68_" class="st4" d="M164.5 375.6h31.7v31.7h-31.7z"/><path id="XMLID_67_" class="st4" d="M524 529h31.7v31.7H524z"/><path id="XMLID_66_" class="st4" d="M392.7 22.9h31.7v31.7h-31.7z"/><g id="XMLID_60_"><path id="XMLID_65_" class="st4" d="M347.2 344.8c-6.9 0-5.7-12.3-14.5-12.3"/><path id="XMLID_64_" class="st4" d="M376.2 344.8c-6.9 0-5.7-12.3-14.5-12.3"/><path id="XMLID_63_" class="st4" d="M347.2 344.8c6.9 0 5.7-12.3 14.5-12.3"/><path id="XMLID_61_" class="st4" d="M376.2 344.8c6.9 0 5.7-12.3 14.5-12.3"/></g><g id="XMLID_54_"><path id="XMLID_59_" class="st4" d="M430 573c-6.9 0-5.7-12.3-14.5-12.3"/><path id="XMLID_58_" class="st4" d="M459.1 573c-6.9 0-5.7-12.3-14.5-12.3"/><path id="XMLID_57_" class="st4" d="M430 573c6.9 0 5.7-12.3 14.5-12.3"/><path id="XMLID_55_" class="st4" d="M459.1 573c6.9 0 5.7-12.3 14.5-12.3"/></g><g id="XMLID_48_"><path id="XMLID_53_" class="st4" d="M469.6 243.9c-6.9 0-5.7-12.3-14.5-12.3"/><path id="XMLID_52_" class="st4" d="M498.7 243.9c-6.9 0-5.7-12.3-14.5-12.3"/><path id="XMLID_51_" class="st4" d="M469.6 243.9c6.9 0 5.7-12.3 14.5-12.3"/><path id="XMLID_49_" class="st4" d="M498.7 243.9c6.9 0 5.7-12.3 14.5-12.3"/></g><g id="XMLID_42_"><path id="XMLID_47_" class="st4" d="M65.3 229.1c-6.9 0-5.7-12.3-14.5-12.3"/><path id="XMLID_46_" class="st4" d="M94.4 229.1c-6.9 0-5.7-12.3-14.5-12.3"/><path id="XMLID_45_" class="st4" d="M65.3 229.1c6.9 0 5.7-12.3 14.5-12.3"/><path id="XMLID_43_" class="st4" d="M94.4 229.1c6.9 0 5.7-12.3 14.5-12.3"/></g><g id="XMLID_36_"><path id="XMLID_41_" class="st4" d="M349.6 65.1c0 6.9-12.3 5.7-12.3 14.5"/><path id="XMLID_40_" class="st4" d="M349.6 36c0 6.9-12.3 5.7-12.3 14.5"/><path id="XMLID_39_" class="st4" d="M349.6 65.1c0-6.9-12.3-5.7-12.3-14.5"/><path id="XMLID_37_" class="st4" d="M349.6 36c0-6.9-12.3-5.7-12.3-14.5"/></g><g id="XMLID_30_"><path id="XMLID_35_" class="st4" d="M260.4 217.2c0 6.9-12.3 5.7-12.3 14.5"/><path id="XMLID_34_" class="st4" d="M260.4 188.1c0 6.9-12.3 5.7-12.3 14.5"/><path id="XMLID_33_" class="st4" d="M260.4 217.2c0-6.9-12.3-5.7-12.3-14.5"/><path id="XMLID_31_" class="st4" d="M260.4 188.1c0-6.9-12.3-5.7-12.3-14.5"/></g><g id="XMLID_24_"><path id="XMLID_29_" class="st4" d="M502.1 460.1c0 6.9-12.3 5.7-12.3 14.5"/><path id="XMLID_28_" class="st4" d="M502.1 431c0 6.9-12.3 5.7-12.3 14.5"/><path id="XMLID_27_" class="st4" d="M502.1 460.1c0-6.9-12.3-5.7-12.3-14.5"/><path id="XMLID_25_" class="st4" d="M502.1 431c0-6.9-12.3-5.7-12.3-14.5"/></g><g id="XMLID_18_"><path id="XMLID_23_" class="st4" d="M202.3 483c0 6.9-12.3 5.7-12.3 14.5"/><path id="XMLID_22_" class="st4" d="M202.3 453.9c0 6.9-12.3 5.7-12.3 14.5"/><path id="XMLID_21_" class="st4" d="M202.3 483c0-6.9-12.3-5.7-12.3-14.5"/><path id="XMLID_19_" class="st4" d="M202.3 453.9c0-6.9-12.3-5.7-12.3-14.5"/></g><path id="XMLID_17_" class="st4" d="M382 377.4h35.9"/><path id="XMLID_16_" class="st4" d="M29.4 273.7h35.8"/><path id="XMLID_15_" class="st4" d="M384.7 107h35.9"/><path id="XMLID_14_" class="st4" d="M526.1 26h35.8"/><path id="XMLID_13_" class="st4" d="M172.4 560.7h35.8"/><path id="XMLID_12_" class="st4" d="M264.5 491.4l25.3-25.4"/><path id="XMLID_11_" class="st4" d="M54.5 51.4L79.9 26"/><path id="XMLID_10_" class="st4" d="M544 311.4l25.4-25.3"/></g><path id="XMLID_8_" class="st2" d="M333.1 448.9c-2.9 1.8-6.8 1-8.6-2-1.8-2.9-1-6.8 2-8.6 2.9-1.8 6.8-1 8.6 2 1.8 2.9 1 6.8-2 8.6z"/><path id="XMLID_7_" class="st2" d="M283.8 276.5c-2.9 1.8-6.8 1-8.6-2-1.8-2.9-1-6.8 2-8.6 2.9-1.8 6.8-1 8.6 2 1.8 2.9.9 6.8-2 8.6z"/><path id="XMLID_6_" class="st2" d="M57.9 329.5c-2.9 1.8-6.8 1-8.6-2-1.8-2.9-1-6.8 2-8.6 2.9-1.8 6.8-1 8.6 2 1.8 2.9.9 6.8-2 8.6z"/><path id="XMLID_5_" class="st2" d="M122.1 132.3c-2.9 1.8-6.8 1-8.6-2-1.8-2.9-1-6.8 2-8.6 2.9-1.8 6.8-1 8.6 2 1.8 2.8.9 6.7-2 8.6z"/><path id="XMLID_4_" class="st2" d="M466.9 129.1c-2.9 1.8-6.8 1-8.6-2-1.8-2.9-1-6.8 2-8.6 2.9-1.8 6.8-1 8.6 2 1.8 2.9.9 6.8-2 8.6z"/><path id="XMLID_3_" class="st2" d="M555.4 352.5c-2.9 1.8-6.8 1-8.6-2-1.8-2.9-1-6.8 2-8.6 2.9-1.8 6.8-1 8.6 2 1.8 2.8.9 6.7-2 8.6z"/><path id="XMLID_386_" class="st1" d="M1342.9 503.4H1920V1080h-577.1z"/><g id="XMLID_383_"><path id="XMLID_385_" class="st2" d="M1544.7 618.4l-15.2-14.3"/><path id="XMLID_384_" class="st2" d="M1530 618.9l14.3-15.3"/></g><g id="XMLID_380_"><path id="XMLID_382_" class="st2" d="M1562.3 837.9l-15.3-14.3"/><path id="XMLID_381_" class="st2" d="M1547.5 838.3l14.3-15.2"/></g><g id="XMLID_377_"><path id="XMLID_379_" class="st2" d="M1376.7 960.5l-15.3-14.3"/><path id="XMLID_378_" class="st2" d="M1361.9 960.9l14.3-15.2"/></g><g id="XMLID_374_"><path id="XMLID_376_" class="st2" d="M1370 597.5l-15.2-14.3"/><path id="XMLID_375_" class="st2" d="M1355.2 598l14.3-15.2"/></g><g id="XMLID_371_"><path id="XMLID_373_" class="st2" d="M1912.4 618.1l-15.2-14.4"/><path id="XMLID_372_" class="st2" d="M1897.7 618.5l14.3-15.2"/></g><g id="XMLID_368_"><path id="XMLID_370_" class="st2" d="M1732.5 695.9l-15.2-14.3"/><path id="XMLID_369_" class="st2" d="M1717.7 696.3l14.3-15.2"/></g><g id="XMLID_365_"><path id="XMLID_367_" class="st2" d="M1806.9 865.7l-15.3-14.3"/><path id="XMLID_366_" class="st2" d="M1792.1 866.1l14.3-15.2"/></g><g id="XMLID_362_"><path id="XMLID_364_" class="st2" d="M1795 1004l-15.2-14.3"/><path id="XMLID_363_" class="st2" d="M1780.2 1004.5l14.3-15.3"/></g><path id="XMLID_361_" class="st2" d="M1658.1 641.3l-10.5-18.1-10.5 18.1-10.5 18.2h42z"/><path id="XMLID_360_" class="st2" d="M1623.4 863.3l-10.5-18.1-10.5 18.1-10.5 18.2h42z"/><path id="XMLID_359_" class="st2" d="M1743.7 931.5l-10.5-18.2-10.5 18.2-10.4 18.2h41.9z"/><path id="XMLID_358_" class="st2" d="M1812.9 792.1l5.4-20.3-20.2 5.4-20.3 5.5 14.9 14.8 14.8 14.8z"/><path id="XMLID_357_" class="st2" d="M1468 556.8l5.4-20.3-20.2 5.5-20.3 5.4 14.9 14.8 14.8 14.8z"/><path id="XMLID_356_" class="st2" d="M1453.6 994.7l5.5-20.3-20.3 5.5-20.3 5.4 14.9 14.8 14.8 14.9z"/><path id="XMLID_355_" class="st2" d="M1834.2 579.4l18.1-10.5-18.1-10.5L1816 548v41.9z"/><path id="XMLID_354_" class="st2" d="M1453.2 789l18.1-10.5-18.1-10.5-18.2-10.5v42z"/><circle id="XMLID_353_" class="st2" cx="1677.6" cy="754.6" r="15.9"/><circle id="XMLID_352_" class="st2" cx="1597.2" cy="577" r="15.9"/><circle id="XMLID_351_" class="st2" cx="1607.4" cy="1046.7" r="15.9"/><path id="XMLID_350_" class="st2" d="M1665.8 1022.9c0-8.8 7.1-15.9 15.9-15.9s15.9 7.1 15.9 15.9"/><path id="XMLID_349_" class="st2" d="M1538.8 778.5c0-8.8 7.1-15.9 15.9-15.9s15.9 7.1 15.9 15.9"/><path id="XMLID_348_" class="st2" d="M1371.4 649.3c0-8.8 7.1-15.9 15.8-15.9s15.8 7.1 15.8 15.9"/><path id="XMLID_347_" class="st2" d="M1772.5 675.3c-8.8 0-15.9-7.1-15.9-15.8s7.1-15.8 15.9-15.8"/><path id="XMLID_346_" class="st2" d="M1389.4 1046.6c-8.8 0-15.9-7.1-15.9-15.8s7.1-15.8 15.9-15.8"/><path id="XMLID_345_" class="st2" d="M1560.1 540.5c-8.8 0-15.9-7.1-15.9-15.8 0-8.7 7.1-15.8 15.9-15.8"/><circle id="XMLID_344_" class="st2" cx="1381.4" cy="879.2" r="15.9"/><circle id="XMLID_343_" class="st2" cx="1872.1" cy="897.4" r="15.9"/><path id="XMLID_342_" class="st2" d="M1844 643.7h31.7v31.7H1844z"/><path id="XMLID_341_" class="st2" d="M1486.1 659.5h31.7v31.7h-31.7z"/><path id="XMLID_340_" class="st2" d="M1484.5 861.6h31.7v31.7h-31.7z"/><path id="XMLID_339_" class="st2" d="M1844 1015h31.7v31.7H1844z"/><path id="XMLID_338_" class="st2" d="M1712.7 508.9h31.7v31.7h-31.7z"/><g id="XMLID_332_"><path id="XMLID_337_" class="st2" d="M1667.2 830.7c-6.9 0-5.7-12.3-14.5-12.3"/><path id="XMLID_336_" class="st2" d="M1696.3 830.7c-6.9 0-5.7-12.3-14.5-12.3"/><path id="XMLID_335_" class="st2" d="M1667.2 830.7c6.9 0 5.7-12.3 14.5-12.3"/><path id="XMLID_333_" class="st2" d="M1696.3 830.7c6.9 0 5.7-12.3 14.5-12.3"/></g><g id="XMLID_326_"><path id="XMLID_331_" class="st2" d="M1750 1058.9c-6.9 0-5.7-12.3-14.5-12.3"/><path id="XMLID_330_" class="st2" d="M1779.1 1058.9c-6.9 0-5.7-12.3-14.5-12.3"/><path id="XMLID_329_" class="st2" d="M1750 1058.9c6.9 0 5.7-12.3 14.5-12.3"/><path id="XMLID_327_" class="st2" d="M1779.1 1058.9c6.9 0 5.7-12.3 14.5-12.3"/></g><g id="XMLID_320_"><path id="XMLID_325_" class="st2" d="M1789.7 729.9c-6.9 0-5.7-12.3-14.5-12.3"/><path id="XMLID_324_" class="st2" d="M1818.8 729.9c-6.9 0-5.7-12.3-14.5-12.3"/><path id="XMLID_323_" class="st2" d="M1789.7 729.9c6.9 0 5.7-12.3 14.5-12.3"/><path id="XMLID_321_" class="st2" d="M1818.8 729.9c6.9 0 5.7-12.3 14.5-12.3"/></g><g id="XMLID_314_"><path id="XMLID_319_" class="st2" d="M1385.4 715.1c-6.9 0-5.7-12.3-14.5-12.3"/><path id="XMLID_318_" class="st2" d="M1414.5 715.1c-6.9 0-5.7-12.3-14.5-12.3"/><path id="XMLID_317_" class="st2" d="M1385.4 715.1c6.9 0 5.7-12.3 14.5-12.3"/><path id="XMLID_315_" class="st2" d="M1414.5 715.1c6.9 0 5.7-12.3 14.5-12.3"/></g><g id="XMLID_308_"><path id="XMLID_313_" class="st2" d="M1669.6 551c0 6.9-12.3 5.7-12.3 14.5"/><path id="XMLID_312_" class="st2" d="M1669.6 522c0 6.9-12.3 5.7-12.3 14.5"/><path id="XMLID_311_" class="st2" d="M1669.6 551c0-6.9-12.3-5.7-12.3-14.5"/><path id="XMLID_309_" class="st2" d="M1669.6 522c0-6.9-12.3-5.7-12.3-14.5"/></g><g id="XMLID_302_"><path id="XMLID_307_" class="st2" d="M1580.5 703.1c0 6.9-12.3 5.7-12.3 14.5"/><path id="XMLID_306_" class="st2" d="M1580.5 674c0 6.9-12.3 5.7-12.3 14.5"/><path id="XMLID_305_" class="st2" d="M1580.5 703.1c0-6.9-12.3-5.7-12.3-14.5"/><path id="XMLID_303_" class="st2" d="M1580.5 674c0-6.9-12.3-5.7-12.3-14.5"/></g><g id="XMLID_296_"><path id="XMLID_301_" class="st2" d="M1822.1 946c0 6.9-12.3 5.7-12.3 14.5"/><path id="XMLID_300_" class="st2" d="M1822.1 917c0 6.9-12.3 5.7-12.3 14.5"/><path id="XMLID_299_" class="st2" d="M1822.1 946c0-6.9-12.3-5.7-12.3-14.5"/><path id="XMLID_297_" class="st2" d="M1822.1 917c0-6.9-12.3-5.7-12.3-14.5"/></g><g id="XMLID_290_"><path id="XMLID_295_" class="st2" d="M1522.3 969c0 6.9-12.3 5.7-12.3 14.5"/><path id="XMLID_294_" class="st2" d="M1522.3 939.9c0 6.9-12.3 5.7-12.3 14.5"/><path id="XMLID_293_" class="st2" d="M1522.3 969c0-6.9-12.3-5.7-12.3-14.5"/><path id="XMLID_291_" class="st2" d="M1522.3 939.9c0-6.9-12.3-5.7-12.3-14.5"/></g><path id="XMLID_289_" class="st2" d="M1702.1 863.3h35.8"/><path id="XMLID_288_" class="st2" d="M1349.4 759.7h35.9"/><path id="XMLID_287_" class="st2" d="M1704.7 593h35.9"/><path id="XMLID_286_" class="st2" d="M1846.1 512h35.9"/><path id="XMLID_285_" class="st2" d="M1492.4 1046.6h35.9"/><path id="XMLID_284_" class="st2" d="M1584.5 977.3l25.4-25.3"/><path id="XMLID_283_" class="st2" d="M1374.6 537.4l25.3-25.4"/><path id="XMLID_282_" class="st2" d="M1864.1 797.4l25.3-25.4"/><g id="XMLID_201_" class="st3"><path id="XMLID_281_" class="st4" d="M1680.9 654.7l-10.5-18.2-10.5 18.2-10.4 18.2 20.9-.1h21z"/><path id="XMLID_280_" class="st4" d="M1646.2 876.7l-10.5-18.2-10.5 18.2-10.5 18.2 21-.1h21z"/><path id="XMLID_279_" class="st4" d="M1766.5 944.9l-10.5-18.2-10.4 18.2-10.5 18.1h41.9z"/><path id="XMLID_278_" class="st4" d="M1835.7 805.4l5.5-20.2-20.3 5.4-20.2 5.4 14.8 14.9 14.8 14.8z"/><path id="XMLID_277_" class="st4" d="M1490.8 570.1l5.4-20.2-20.2 5.4-20.3 5.5 14.9 14.8 14.8 14.8z"/><path id="XMLID_276_" class="st4" d="M1476.5 1008l5.4-20.2-20.3 5.4-20.2 5.5 14.8 14.8 14.8 14.8z"/><path id="XMLID_275_" class="st4" d="M1857 592.8l18.2-10.5-18.2-10.5-18.2-10.5v42z"/><path id="XMLID_274_" class="st4" d="M1476 802.3l18.2-10.5-18.2-10.4-18.2-10.5v41.9z"/><circle id="XMLID_273_" class="st4" cx="1700.4" cy="768" r="15.9"/><circle id="XMLID_272_" class="st4" cx="1620" cy="590.4" r="15.9"/><circle id="XMLID_271_" class="st4" cx="1630.2" cy="1060.1" r="15.9"/><path id="XMLID_270_" class="st4" d="M1688.7 1036.3c0-8.8 7.1-15.9 15.9-15.9s15.9 7.1 15.9 15.9"/><path id="XMLID_269_" class="st4" d="M1561.7 791.9c0-8.8 7.1-15.9 15.9-15.9s15.9 7.1 15.9 15.9"/><path id="XMLID_268_" class="st4" d="M1394.2 662.6c0-8.8 7.1-15.9 15.8-15.9s15.8 7.1 15.8 15.9"/><path id="XMLID_267_" class="st4" d="M1795.4 688.7c-8.8 0-15.9-7.1-15.9-15.8 0-8.7 7.1-15.8 15.9-15.8"/><path id="XMLID_266_" class="st4" d="M1412.2 1060c-8.8 0-15.9-7.1-15.9-15.8 0-8.7 7.1-15.8 15.9-15.8"/><path id="XMLID_265_" class="st4" d="M1582.9 553.9c-8.8 0-15.9-7.1-15.9-15.8 0-8.7 7.1-15.8 15.9-15.8"/><circle id="XMLID_264_" class="st4" cx="1404.2" cy="892.6" r="15.9"/><circle id="XMLID_263_" class="st4" cx="1894.9" cy="910.8" r="15.9"/><path id="XMLID_262_" class="st4" d="M1866.8 657h31.7v31.7h-31.7z"/><path id="XMLID_261_" class="st4" d="M1508.9 672.9h31.7v31.7h-31.7z"/><path id="XMLID_260_" class="st4" d="M1507.4 875h31.7v31.7h-31.7z"/><path id="XMLID_259_" class="st4" d="M1866.8 1028.3h31.7v31.7h-31.7z"/><path id="XMLID_258_" class="st4" d="M1735.5 522.2h31.7v31.7h-31.7z"/><g id="XMLID_252_"><path id="XMLID_257_" class="st4" d="M1690 844.1c-6.9 0-5.7-12.3-14.5-12.3"/><path id="XMLID_256_" class="st4" d="M1719.1 844.1c-6.9 0-5.7-12.3-14.5-12.3"/><path id="XMLID_255_" class="st4" d="M1690 844.1c6.9 0 5.7-12.3 14.5-12.3"/><path id="XMLID_253_" class="st4" d="M1719.1 844.1c6.9 0 5.7-12.3 14.5-12.3"/></g><g id="XMLID_246_"><path id="XMLID_251_" class="st4" d="M1772.9 1072.3c-6.9 0-5.7-12.3-14.5-12.3"/><path id="XMLID_250_" class="st4" d="M1801.9 1072.3c-6.9 0-5.7-12.3-14.5-12.3"/><path id="XMLID_249_" class="st4" d="M1772.9 1072.3c6.9 0 5.7-12.3 14.5-12.3"/><path id="XMLID_247_" class="st4" d="M1801.9 1072.3c6.9 0 5.7-12.3 14.5-12.3"/></g><g id="XMLID_240_"><path id="XMLID_245_" class="st4" d="M1812.5 743.3c-6.9 0-5.7-12.3-14.5-12.3"/><path id="XMLID_244_" class="st4" d="M1841.6 743.3c-6.9 0-5.7-12.3-14.5-12.3"/><path id="XMLID_243_" class="st4" d="M1812.5 743.3c6.9 0 5.7-12.3 14.5-12.3"/><path id="XMLID_241_" class="st4" d="M1841.6 743.3c6.9 0 5.7-12.3 14.5-12.3"/></g><g id="XMLID_234_"><path id="XMLID_239_" class="st4" d="M1408.2 728.5c-6.9 0-5.7-12.3-14.5-12.3"/><path id="XMLID_238_" class="st4" d="M1437.3 728.5c-6.9 0-5.7-12.3-14.5-12.3"/><path id="XMLID_237_" class="st4" d="M1408.2 728.5c6.9 0 5.7-12.3 14.5-12.3"/><path id="XMLID_235_" class="st4" d="M1437.3 728.5c6.9 0 5.7-12.3 14.5-12.3"/></g><g id="XMLID_228_"><path id="XMLID_233_" class="st4" d="M1692.4 564.4c0 6.9-12.3 5.7-12.3 14.5"/><path id="XMLID_232_" class="st4" d="M1692.4 535.3c0 6.9-12.3 5.7-12.3 14.5"/><path id="XMLID_231_" class="st4" d="M1692.4 564.4c0-6.9-12.3-5.7-12.3-14.5"/><path id="XMLID_229_" class="st4" d="M1692.4 535.3c0-6.9-12.3-5.7-12.3-14.5"/></g><g id="XMLID_222_"><path id="XMLID_227_" class="st4" d="M1603.3 716.5c0 6.9-12.3 5.7-12.3 14.5"/><path id="XMLID_226_" class="st4" d="M1603.3 687.4c0 6.9-12.3 5.7-12.3 14.5"/><path id="XMLID_225_" class="st4" d="M1603.3 716.5c0-6.9-12.3-5.7-12.3-14.5"/><path id="XMLID_223_" class="st4" d="M1603.3 687.4c0-6.9-12.3-5.7-12.3-14.5"/></g><g id="XMLID_216_"><path id="XMLID_221_" class="st4" d="M1844.9 959.4c0 6.9-12.3 5.7-12.3 14.5"/><path id="XMLID_220_" class="st4" d="M1844.9 930.3c0 6.9-12.3 5.7-12.3 14.5"/><path id="XMLID_219_" class="st4" d="M1844.9 959.4c0-6.9-12.3-5.7-12.3-14.5"/><path id="XMLID_217_" class="st4" d="M1844.9 930.3c0-6.9-12.3-5.7-12.3-14.5"/></g><g id="XMLID_210_"><path id="XMLID_215_" class="st4" d="M1545.1 982.3c0 6.9-12.3 5.7-12.3 14.5"/><path id="XMLID_214_" class="st4" d="M1545.1 953.2c0 6.9-12.3 5.7-12.3 14.5"/><path id="XMLID_213_" class="st4" d="M1545.1 982.3c0-6.9-12.3-5.7-12.3-14.5"/><path id="XMLID_211_" class="st4" d="M1545.1 953.2c0-6.9-12.3-5.7-12.3-14.5"/></g><path id="XMLID_209_" class="st4" d="M1724.9 876.7h35.8"/><path id="XMLID_208_" class="st4" d="M1372.3 773h35.8"/><path id="XMLID_207_" class="st4" d="M1727.6 606.3h35.8"/><path id="XMLID_206_" class="st4" d="M1868.9 525.4h35.9"/><path id="XMLID_205_" class="st4" d="M1515.2 1060h35.9"/><path id="XMLID_204_" class="st4" d="M1607.4 990.7l25.3-25.4"/><path id="XMLID_203_" class="st4" d="M1397.4 550.7l25.4-25.3"/><path id="XMLID_202_" class="st4" d="M1886.9 810.7l25.3-25.3"/></g><path id="XMLID_200_" class="st2" d="M1676 948.3c-2.9 1.8-6.8 1-8.6-2-1.8-2.9-1-6.8 2-8.6 2.9-1.8 6.8-1 8.6 2 1.8 2.8.9 6.7-2 8.6z"/><path id="XMLID_199_" class="st2" d="M1626.6 775.8c-2.9 1.8-6.8 1-8.6-2-1.8-2.9-1-6.8 2-8.6 2.9-1.8 6.8-1 8.6 2 1.8 2.9 1 6.8-2 8.6z"/><path id="XMLID_198_" class="st2" d="M1400.7 828.9c-2.9 1.8-6.8 1-8.6-2-1.8-2.9-1-6.8 2-8.6 2.9-1.8 6.8-1 8.6 2 1.8 2.8 1 6.7-2 8.6z"/><path id="XMLID_197_" class="st2" d="M1465 631.6c-2.9 1.8-6.8 1-8.6-2-1.8-2.9-1-6.8 2-8.6 2.9-1.8 6.8-1 8.6 2 1.8 2.9.9 6.7-2 8.6z"/><path id="XMLID_196_" class="st2" d="M1809.7 628.5c-2.9 1.8-6.8 1-8.6-2-1.8-2.9-1-6.8 2-8.6 2.9-1.8 6.8-1 8.6 2 1.8 2.8 1 6.7-2 8.6z"/><path id="XMLID_195_" class="st2" d="M1898.3 851.8c-2.9 1.8-6.8 1-8.6-2-1.8-2.9-1-6.8 2-8.6 2.9-1.8 6.8-1 8.6 2 1.8 2.9.9 6.7-2 8.6z"/><g id="XMLID_575_"><path id="XMLID_577_" class="st2" d="M1137.5 965l15.3 14.3"/><path id="XMLID_576_" class="st2" d="M1152.3 964.5l-14.3 15.2"/></g><g id="XMLID_572_"><path id="XMLID_574_" class="st2" d="M1120 745.5l15.3 14.3"/><path id="XMLID_573_" class="st2" d="M1134.8 745.1l-14.3 15.2"/></g><g id="XMLID_569_"><path id="XMLID_571_" class="st2" d="M1305.6 622.9l15.2 14.3"/><path id="XMLID_570_" class="st2" d="M1320.4 622.5l-14.3 15.2"/></g><g id="XMLID_566_"><path id="XMLID_568_" class="st2" d="M1312.3 985.8l15.2 14.4"/><path id="XMLID_567_" class="st2" d="M1327 985.4l-14.3 15.2"/></g><g id="XMLID_563_"><path id="XMLID_565_" class="st2" d="M769.8 965.3l15.3 14.3"/><path id="XMLID_564_" class="st2" d="M784.6 964.9l-14.3 15.2"/></g><g id="XMLID_560_"><path id="XMLID_562_" class="st2" d="M949.8 887.5l15.2 14.3"/><path id="XMLID_561_" class="st2" d="M964.6 887.1l-14.4 15.2"/></g><g id="XMLID_557_"><path id="XMLID_559_" class="st2" d="M875.4 717.7l15.3 14.3"/><path id="XMLID_558_" class="st2" d="M890.2 717.3l-14.3 15.2"/></g><g id="XMLID_554_"><path id="XMLID_556_" class="st2" d="M887.3 579.4l15.2 14.3"/><path id="XMLID_555_" class="st2" d="M902 578.9l-14.3 15.3"/></g><path id="XMLID_553_" class="st2" d="M1024.2 942.1l10.5 18.1 10.5-18.1 10.4-18.2h-41.9z"/><path id="XMLID_552_" class="st2" d="M1058.9 720.1l10.5 18.1 10.5-18.1 10.5-18.2h-42z"/><path id="XMLID_551_" class="st2" d="M938.6 651.9l10.5 18.2 10.4-18.2 10.5-18.2h-41.9z"/><path id="XMLID_550_" class="st2" d="M869.3 791.3l-5.4 20.3 20.3-5.5 20.2-5.4-14.8-14.8-14.8-14.8z"/><path id="XMLID_549_" class="st2" d="M1214.3 1026.6l-5.4 20.3 20.2-5.5 20.3-5.4-14.9-14.8-14.8-14.8z"/><path id="XMLID_548_" class="st2" d="M1228.6 588.7l-5.4 20.3 20.3-5.5 20.2-5.4-14.8-14.8-14.8-14.9z"/><path id="XMLID_547_" class="st2" d="M848.1 1004l-18.2 10.5 18.2 10.4 18.2 10.5v-41.9z"/><path id="XMLID_546_" class="st2" d="M1229.1 794.4l-18.2 10.5 18.2 10.5 18.2 10.5v-42z"/><circle id="XMLID_545_" class="st2" cx="1004.7" cy="828.8" r="15.9"/><circle id="XMLID_544_" class="st2" cx="1085.1" cy="1006.4" r="15.9"/><circle id="XMLID_543_" class="st2" cx="1074.9" cy="536.7" r="15.9"/><path id="XMLID_542_" class="st2" d="M1016.4 560.5c0 8.8-7.1 15.9-15.9 15.9s-15.9-7.1-15.9-15.9"/><path id="XMLID_541_" class="st2" d="M1143.4 804.9c0 8.8-7.1 15.9-15.9 15.9s-15.9-7.1-15.9-15.9"/><path id="XMLID_540_" class="st2" d="M1310.9 934.1c0 8.8-7.1 15.9-15.8 15.9s-15.8-7.1-15.8-15.9"/><path id="XMLID_539_" class="st2" d="M909.7 908c8.8 0 15.9 7.1 15.9 15.8 0 8.7-7.1 15.8-15.9 15.8"/><path id="XMLID_538_" class="st2" d="M1292.9 536.8c8.8 0 15.9 7.1 15.9 15.8 0 8.7-7.1 15.8-15.9 15.8"/><path id="XMLID_537_" class="st2" d="M1122.2 1042.9c8.8 0 15.9 7.1 15.9 15.8 0 8.7-7.1 15.8-15.9 15.8"/><circle id="XMLID_536_" class="st2" cx="1300.9" cy="704.1" r="15.9"/><circle id="XMLID_535_" class="st2" cx="810.2" cy="686" r="15.9"/><path id="XMLID_534_" class="st2" d="M806.6 908.1h31.7v31.7h-31.7z"/><path id="XMLID_533_" class="st2" d="M1164.5 892.2h31.7v31.7h-31.7z"/><path id="XMLID_532_" class="st2" d="M1166.1 690.1h31.7v31.7h-31.7z"/><path id="XMLID_531_" class="st2" d="M806.6 536.8h31.7v31.7h-31.7z"/><path id="XMLID_530_" class="st2" d="M937.9 1042.9h31.7v31.7h-31.7z"/><g id="XMLID_524_"><path id="XMLID_529_" class="st2" d="M1015.1 752.7c6.9 0 5.7 12.3 14.5 12.3"/><path id="XMLID_528_" class="st2" d="M986 752.7c6.9 0 5.7 12.3 14.5 12.3"/><path id="XMLID_527_" class="st2" d="M1015.1 752.7c-6.9 0-5.7 12.3-14.5 12.3"/><path id="XMLID_525_" class="st2" d="M986 752.7c-6.9 0-5.7 12.3-14.5 12.3"/></g><g id="XMLID_512_"><path id="XMLID_517_" class="st2" d="M892.6 853.5c6.9 0 5.7 12.3 14.5 12.3"/><path id="XMLID_516_" class="st2" d="M863.5 853.5c6.9 0 5.7 12.3 14.5 12.3"/><path id="XMLID_515_" class="st2" d="M892.6 853.5c-6.9 0-5.7 12.3-14.5 12.3"/><path id="XMLID_513_" class="st2" d="M863.5 853.5c-6.9 0-5.7 12.3-14.5 12.3"/></g><g id="XMLID_506_"><path id="XMLID_511_" class="st2" d="M1296.9 868.3c6.9 0 5.7 12.3 14.5 12.3"/><path id="XMLID_510_" class="st2" d="M1267.8 868.3c6.9 0 5.7 12.3 14.5 12.3"/><path id="XMLID_509_" class="st2" d="M1296.9 868.3c-6.9 0-5.7 12.3-14.5 12.3"/><path id="XMLID_507_" class="st2" d="M1267.8 868.3c-6.9 0-5.7 12.3-14.5 12.3"/></g><g id="XMLID_500_"><path id="XMLID_505_" class="st2" d="M1012.6 1032.4c0-6.9 12.3-5.7 12.3-14.5"/><path id="XMLID_504_" class="st2" d="M1012.6 1061.4c0-6.9 12.3-5.7 12.3-14.5"/><path id="XMLID_503_" class="st2" d="M1012.6 1032.4c0 6.9 12.3 5.7 12.3 14.5"/><path id="XMLID_501_" class="st2" d="M1012.6 1061.4c0 6.9 12.3 5.7 12.3 14.5"/></g><g id="XMLID_494_"><path id="XMLID_499_" class="st2" d="M1101.8 880.3c0-6.9 12.3-5.7 12.3-14.5"/><path id="XMLID_498_" class="st2" d="M1101.8 909.4c0-6.9 12.3-5.7 12.3-14.5"/><path id="XMLID_497_" class="st2" d="M1101.8 880.3c0 6.9 12.3 5.7 12.3 14.5"/><path id="XMLID_495_" class="st2" d="M1101.8 909.4c0 6.9 12.3 5.7 12.3 14.5"/></g><g id="XMLID_488_"><path id="XMLID_493_" class="st2" d="M860.2 637.4c0-6.9 12.3-5.7 12.3-14.5"/><path id="XMLID_492_" class="st2" d="M860.2 666.4c0-6.9 12.3-5.7 12.3-14.5"/><path id="XMLID_491_" class="st2" d="M860.2 637.4c0 6.9 12.3 5.7 12.3 14.5"/><path id="XMLID_489_" class="st2" d="M860.2 666.4c0 6.9 12.3 5.7 12.3 14.5"/></g><g id="XMLID_482_"><path id="XMLID_487_" class="st2" d="M1160 614.4c0-6.9 12.3-5.7 12.3-14.5"/><path id="XMLID_486_" class="st2" d="M1160 643.5c0-6.9 12.3-5.7 12.3-14.5"/><path id="XMLID_485_" class="st2" d="M1160 614.4c0 6.9 12.3 5.7 12.3 14.5"/><path id="XMLID_483_" class="st2" d="M1160 643.5c0 6.9 12.3 5.7 12.3 14.5"/></g><path id="XMLID_481_" class="st2" d="M980.2 720.1h-35.9"/><path id="XMLID_480_" class="st2" d="M1332.8 823.7H1297"/><path id="XMLID_479_" class="st2" d="M977.5 990.4h-35.8"/><path id="XMLID_478_" class="st2" d="M836.1 1071.4h-35.8"/><path id="XMLID_477_" class="st2" d="M1189.8 536.8H1154"/><path id="XMLID_476_" class="st2" d="M1097.7 606.1l-25.3 25.3"/><path id="XMLID_475_" class="st2" d="M1307.7 1046l-25.4 25.4"/><path id="XMLID_474_" class="st2" d="M818.2 786l-25.3 25.4"/><g id="XMLID_393_" class="st3"><path id="XMLID_473_" class="st4" d="M1001.4 928.7l10.5 18.2 10.4-18.2 10.5-18.2h-20.9l-21 .1z"/><path id="XMLID_472_" class="st4" d="M1036.1 706.7l10.5 18.2 10.5-18.2 10.4-18.2h-20.9l-21 .1z"/><path id="XMLID_471_" class="st4" d="M915.7 638.5l10.5 18.2 10.5-18.2 10.5-18.1h-42z"/><path id="XMLID_470_" class="st4" d="M846.5 778l-5.4 20.2 20.3-5.4 20.2-5.5-14.8-14.8-14.9-14.8z"/><path id="XMLID_469_" class="st4" d="M1191.5 1013.3l-5.5 20.2 20.3-5.4 20.3-5.5-14.9-14.8-14.8-14.8z"/><path id="XMLID_468_" class="st4" d="M1205.8 575.3l-5.4 20.3 20.3-5.4 20.2-5.5-14.8-14.8-14.9-14.8z"/><path id="XMLID_467_" class="st4" d="M825.3 990.6l-18.2 10.5 18.2 10.5 18.2 10.5-.1-21v-21z"/><path id="XMLID_466_" class="st4" d="M1206.3 781.1l-18.2 10.5 18.2 10.4 18.2 10.5v-21l-.1-20.9z"/><circle id="XMLID_465_" class="st4" cx="981.8" cy="815.4" r="15.9"/><circle id="XMLID_464_" class="st4" cx="1062.2" cy="993" r="15.9"/><circle id="XMLID_463_" class="st4" cx="1052.1" cy="523.3" r="15.9"/><path id="XMLID_462_" class="st4" d="M993.6 547.1c0 8.8-7.1 15.9-15.9 15.9s-15.9-7.1-15.9-15.9"/><path id="XMLID_461_" class="st4" d="M1120.6 791.5c0 8.8-7.1 15.9-15.9 15.9s-15.9-7.1-15.9-15.9"/><path id="XMLID_460_" class="st4" d="M1288 920.7c0 8.8-7.1 15.9-15.8 15.9s-15.8-7.1-15.8-15.9"/><path id="XMLID_459_" class="st4" d="M886.9 894.7c8.8 0 15.9 7.1 15.9 15.8 0 8.7-7.1 15.8-15.9 15.8"/><path id="XMLID_458_" class="st4" d="M1270.1 523.4c8.8 0 15.9 7.1 15.9 15.8 0 8.7-7.1 15.8-15.9 15.8"/><path id="XMLID_457_" class="st4" d="M1099.3 1029.5c8.8 0 15.9 7.1 15.9 15.8 0 8.7-7.1 15.8-15.9 15.8"/><circle id="XMLID_456_" class="st4" cx="1278.1" cy="690.8" r="15.9"/><circle id="XMLID_455_" class="st4" cx="787.3" cy="672.6" r="15.9"/><path id="XMLID_454_" class="st4" d="M783.8 894.7h31.7v31.7h-31.7z"/><path id="XMLID_453_" class="st4" d="M1141.7 878.9h31.7v31.7h-31.7z"/><path id="XMLID_452_" class="st4" d="M1143.3 676.8h31.7v31.7h-31.7z"/><path id="XMLID_451_" class="st4" d="M783.8 523.4h31.7v31.7h-31.7z"/><path id="XMLID_450_" class="st4" d="M915.1 1029.5h31.7v31.7h-31.7z"/><g id="XMLID_444_"><path id="XMLID_449_" class="st4" d="M992.2 739.3c6.9 0 5.7 12.3 14.5 12.3"/><path id="XMLID_448_" class="st4" d="M963.2 739.3c6.9 0 5.7 12.3 14.5 12.3"/><path id="XMLID_447_" class="st4" d="M992.2 739.3c-6.9 0-5.7 12.3-14.5 12.3"/><path id="XMLID_445_" class="st4" d="M963.2 739.3c-6.9 0-5.7 12.3-14.5 12.3"/></g><g id="XMLID_432_"><path id="XMLID_437_" class="st4" d="M869.8 840.1c6.9 0 5.7 12.3 14.5 12.3"/><path id="XMLID_436_" class="st4" d="M840.7 840.1c6.9 0 5.7 12.3 14.5 12.3"/><path id="XMLID_435_" class="st4" d="M869.8 840.1c-6.9 0-5.7 12.3-14.5 12.3"/><path id="XMLID_433_" class="st4" d="M840.7 840.1c-6.9 0-5.7 12.3-14.5 12.3"/></g><g id="XMLID_426_"><path id="XMLID_431_" class="st4" d="M1274.1 854.9c6.9 0 5.7 12.3 14.5 12.3"/><path id="XMLID_430_" class="st4" d="M1245 854.9c6.9 0 5.7 12.3 14.5 12.3"/><path id="XMLID_429_" class="st4" d="M1274.1 854.9c-6.9 0-5.7 12.3-14.5 12.3"/><path id="XMLID_427_" class="st4" d="M1245 854.9c-6.9 0-5.7 12.3-14.5 12.3"/></g><g id="XMLID_420_"><path id="XMLID_425_" class="st4" d="M989.8 1019c0-6.9 12.3-5.7 12.3-14.5"/><path id="XMLID_424_" class="st4" d="M989.8 1048.1c0-6.9 12.3-5.7 12.3-14.5"/><path id="XMLID_423_" class="st4" d="M989.8 1019c0 6.9 12.3 5.7 12.3 14.5"/><path id="XMLID_421_" class="st4" d="M989.8 1048.1c0 6.9 12.3 5.7 12.3 14.5"/></g><g id="XMLID_414_"><path id="XMLID_419_" class="st4" d="M1079 866.9c0-6.9 12.3-5.7 12.3-14.5"/><path id="XMLID_418_" class="st4" d="M1079 896c0-6.9 12.3-5.7 12.3-14.5"/><path id="XMLID_417_" class="st4" d="M1079 866.9c0 6.9 12.3 5.7 12.3 14.5"/><path id="XMLID_415_" class="st4" d="M1079 896c0 6.9 12.3 5.7 12.3 14.5"/></g><g id="XMLID_408_"><path id="XMLID_413_" class="st4" d="M837.3 624c0-6.9 12.3-5.7 12.3-14.5"/><path id="XMLID_412_" class="st4" d="M837.3 653.1c0-6.9 12.3-5.7 12.3-14.5"/><path id="XMLID_411_" class="st4" d="M837.3 624c0 6.9 12.3 5.7 12.3 14.5"/><path id="XMLID_409_" class="st4" d="M837.3 653.1c0 6.9 12.3 5.7 12.3 14.5"/></g><g id="XMLID_402_"><path id="XMLID_407_" class="st4" d="M1137.1 601.1c0-6.9 12.3-5.7 12.3-14.5"/><path id="XMLID_406_" class="st4" d="M1137.1 630.2c0-6.9 12.3-5.7 12.3-14.5"/><path id="XMLID_405_" class="st4" d="M1137.1 601.1c0 6.9 12.3 5.7 12.3 14.5"/><path id="XMLID_403_" class="st4" d="M1137.1 630.2c0 6.9 12.3 5.7 12.3 14.5"/></g><path id="XMLID_401_" class="st4" d="M957.4 706.7h-35.9"/><path id="XMLID_400_" class="st4" d="M1310 810.4h-35.8"/><path id="XMLID_399_" class="st4" d="M954.7 977.1h-35.8"/><path id="XMLID_398_" class="st4" d="M813.3 1058h-35.8"/><path id="XMLID_397_" class="st4" d="M1167 523.4h-35.8"/><path id="XMLID_396_" class="st4" d="M1074.9 592.7l-25.3 25.4"/><path id="XMLID_395_" class="st4" d="M1284.9 1032.7l-25.4 25.3"/><path id="XMLID_394_" class="st4" d="M795.4 772.7L770 798"/></g><path id="XMLID_392_" class="st2" d="M1006.3 635.1c2.9-1.8 6.8-1 8.6 2 1.8 2.9 1 6.8-2 8.6-2.9 1.8-6.8 1-8.6-2-1.8-2.8-1-6.7 2-8.6z"/><path id="XMLID_391_" class="st2" d="M1055.7 807.6c2.9-1.8 6.8-1 8.6 2 1.8 2.9 1 6.8-2 8.6-2.9 1.8-6.8 1-8.6-2-1.9-2.9-1-6.8 2-8.6z"/><path id="XMLID_390_" class="st2" d="M1281.5 754.5c2.9-1.8 6.8-1 8.6 2 1.8 2.9 1 6.8-2 8.6-2.9 1.8-6.8 1-8.6-2-1.8-2.9-.9-6.7 2-8.6z"/><path id="XMLID_389_" class="st2" d="M1217.3 951.8c2.9-1.8 6.8-1 8.6 2 1.8 2.9 1 6.8-2 8.6-2.9 1.8-6.8 1-8.6-2-1.8-2.9-.9-6.7 2-8.6z"/><path id="XMLID_388_" class="st2" d="M872.5 954.9c2.9-1.8 6.8-1 8.6 2 1.8 2.9 1 6.8-2 8.6-2.9 1.8-6.8 1-8.6-2-1.8-2.9-.9-6.7 2-8.6z"/><path id="XMLID_1122_" class="st2" d="M1459.6 367.5c2.9-1.8 6.8-1 8.6 2 1.8 2.9 1 6.8-2 8.6-2.9 1.8-6.8 1-8.6-2-1.8-2.9-1-6.8 2-8.6z"/><path id="XMLID_387_" class="st2" d="M784 731.6c2.9-1.8 6.8-1 8.6 2 1.8 2.9 1 6.8-2 8.6-2.9 1.8-6.8 1-8.6-2-1.8-2.9-.9-6.7 2-8.6z"/><g id="XMLID_899_"><path id="XMLID_901_" class="st2" d="M782.9 472l-15.2 14.3"/><path id="XMLID_900_" class="st2" d="M768.1 471.5l14.4 15.3"/></g><g id="XMLID_896_"><path id="XMLID_898_" class="st2" d="M800.4 252.6l-15.2 14.3"/><path id="XMLID_897_" class="st2" d="M785.7 252.1l14.3 15.3"/></g><g id="XMLID_893_"><path id="XMLID_895_" class="st2" d="M614.9 130l-15.3 14.3"/><path id="XMLID_894_" class="st2" d="M600.1 129.5l14.3 15.3"/></g><g id="XMLID_890_"><path id="XMLID_892_" class="st2" d="M608.2 492.9l-15.3 14.3"/><path id="XMLID_891_" class="st2" d="M593.4 492.4l14.3 15.3"/></g><g id="XMLID_887_"><path id="XMLID_889_" class="st2" d="M1150.6 472.4l-15.2 14.3"/><path id="XMLID_888_" class="st2" d="M1135.8 471.9l14.3 15.3"/></g><g id="XMLID_884_"><path id="XMLID_886_" class="st2" d="M970.7 394.6l-15.3 14.3"/><path id="XMLID_885_" class="st2" d="M955.9 394.1l14.3 15.3"/></g><g id="XMLID_881_"><path id="XMLID_883_" class="st2" d="M1045 224.8l-15.2 14.3"/><path id="XMLID_882_" class="st2" d="M1030.3 224.3l14.3 15.2"/></g><g id="XMLID_878_"><path id="XMLID_880_" class="st2" d="M1033.2 86.4l-15.3 14.3"/><path id="XMLID_879_" class="st2" d="M1018.4 86l14.3 15.2"/></g><path id="XMLID_877_" class="st2" d="M896.3 449.1l-10.5 18.2-10.5-18.2-10.5-18.2h21l21 .1z"/><path id="XMLID_876_" class="st2" d="M861.5 227.1L851 245.3l-10.4-18.2-10.5-18.2h21l20.9.1z"/><path id="XMLID_875_" class="st2" d="M981.9 158.9l-10.5 18.2-10.5-18.2-10.5-18.1h42z"/><path id="XMLID_874_" class="st2" d="M1051.1 298.4l5.4 20.2-20.2-5.4-20.3-5.5 14.9-14.8 14.8-14.8z"/><path id="XMLID_873_" class="st2" d="M706.2 533.7l5.4 20.2-20.3-5.4-20.2-5.5 14.8-14.8 14.9-14.8z"/><path id="XMLID_872_" class="st2" d="M691.8 95.7l5.4 20.3-20.2-5.4-20.3-5.5 14.9-14.8 14.8-14.8z"/><path id="XMLID_870_" class="st2" d="M691.4 301.5l18.1 10.5-18.2 10.4-18.1 10.5V291z"/><circle id="XMLID_869_" class="st2" cx="915.8" cy="335.8" r="15.9"/><circle id="XMLID_868_" class="st2" cx="873.9" cy="530" r="15.9"/><circle id="XMLID_867_" class="st2" cx="845.6" cy="43.7" r="15.9"/><path id="XMLID_866_" class="st2" d="M904 67.5c0 8.8 7.1 15.9 15.9 15.9s15.9-7.1 15.9-15.9"/><path id="XMLID_865_" class="st2" d="M777 311.9c0 8.8 7.1 15.9 15.9 15.9s15.9-7.1 15.9-15.9"/><path id="XMLID_864_" class="st2" d="M609.6 441.1c0 8.8 7.1 15.9 15.8 15.9s15.8-7.1 15.8-15.9"/><path id="XMLID_863_" class="st2" d="M1010.7 415.1c-8.8 0-15.9 7.1-15.9 15.8 0 8.7 7.1 15.8 15.9 15.8"/><path id="XMLID_862_" class="st2" d="M627.5 43.8c-8.8 0-15.9 7.1-15.9 15.8 0 8.7 7.1 15.8 15.9 15.8"/><circle id="XMLID_860_" class="st2" cx="619.6" cy="211.2" r="15.9"/><circle id="XMLID_859_" class="st2" cx="1110.3" cy="193" r="15.9"/><path id="XMLID_858_" class="st2" d="M1082.2 415.1h31.7v31.7h-31.7z"/><path id="XMLID_857_" class="st2" d="M724.3 399.3H756V431h-31.7z"/><path id="XMLID_856_" class="st2" d="M722.7 197.2h31.7v31.7h-31.7z"/><path id="XMLID_855_" class="st2" d="M1082.2 43.8h31.7v31.7h-31.7z"/><g id="XMLID_848_"><path id="XMLID_853_" class="st2" d="M905.4 259.7c-6.9 0-5.7 12.3-14.5 12.3"/><path id="XMLID_852_" class="st2" d="M934.5 259.7c-6.9 0-5.7 12.3-14.5 12.3"/><path id="XMLID_851_" class="st2" d="M905.4 259.7c6.9 0 5.7 12.3 14.5 12.3"/><path id="XMLID_849_" class="st2" d="M934.5 259.7c6.9 0 5.7 12.3 14.5 12.3"/></g><g id="XMLID_842_"><path id="XMLID_847_" class="st2" d="M988.2 31.5c-6.9 0-5.7 12.3-14.5 12.3"/><path id="XMLID_846_" class="st2" d="M1017.3 31.5c-6.9 0-5.7 12.3-14.5 12.3"/><path id="XMLID_845_" class="st2" d="M988.2 31.5c6.9 0 5.7 12.3 14.5 12.3"/><path id="XMLID_843_" class="st2" d="M1017.3 31.5c6.9 0 5.7 12.3 14.5 12.3"/></g><g id="XMLID_836_"><path id="XMLID_841_" class="st2" d="M1027.9 360.5c-6.9 0-5.7 12.3-14.5 12.3"/><path id="XMLID_840_" class="st2" d="M1056.9 360.5c-6.9 0-5.7 12.3-14.5 12.3"/><path id="XMLID_839_" class="st2" d="M1027.9 360.5c6.9 0 5.7 12.3 14.5 12.3"/><path id="XMLID_837_" class="st2" d="M1056.9 360.5c6.9 0 5.7 12.3 14.5 12.3"/></g><g id="XMLID_830_"><path id="XMLID_835_" class="st2" d="M623.6 375.3c-6.9 0-5.7 12.3-14.5 12.3"/><path id="XMLID_834_" class="st2" d="M652.7 375.3c-6.9 0-5.7 12.3-14.5 12.3"/><path id="XMLID_833_" class="st2" d="M623.6 375.3c6.9 0 5.7 12.3 14.5 12.3"/><path id="XMLID_831_" class="st2" d="M652.7 375.3c6.9 0 5.7 12.3 14.5 12.3"/></g><g id="XMLID_818_"><path id="XMLID_823_" class="st2" d="M818.7 387.3c0-6.9-12.3-5.7-12.3-14.5"/><path id="XMLID_822_" class="st2" d="M818.7 416.4c0-6.9-12.3-5.7-12.3-14.5"/><path id="XMLID_821_" class="st2" d="M818.7 387.3c0 6.9-12.3 5.7-12.3 14.5"/><path id="XMLID_819_" class="st2" d="M818.7 416.4c0 6.9-12.3 5.7-12.3 14.5"/></g><g id="XMLID_812_"><path id="XMLID_817_" class="st2" d="M1060.3 144.4c0-6.9-12.3-5.7-12.3-14.5"/><path id="XMLID_816_" class="st2" d="M1060.3 173.5c0-6.9-12.3-5.7-12.3-14.5"/><path id="XMLID_815_" class="st2" d="M1060.3 144.4c0 6.9-12.3 5.7-12.3 14.5"/><path id="XMLID_813_" class="st2" d="M1060.3 173.5c0 6.9-12.3 5.7-12.3 14.5"/></g><g id="XMLID_806_"><path id="XMLID_811_" class="st2" d="M760.5 121.5c0-6.9-12.3-5.7-12.3-14.5"/><path id="XMLID_810_" class="st2" d="M760.5 150.6c0-6.9-12.3-5.7-12.3-14.5"/><path id="XMLID_809_" class="st2" d="M760.5 121.5c0 6.9-12.3 5.7-12.3 14.5"/><path id="XMLID_807_" class="st2" d="M760.5 150.6c0 6.9-12.3 5.7-12.3 14.5"/></g><path id="XMLID_805_" class="st2" d="M940.2 227.1h35.9"/><path id="XMLID_804_" class="st2" d="M587.6 330.8h35.9"/><path id="XMLID_803_" class="st2" d="M942.9 497.5h35.9"/><path id="XMLID_802_" class="st2" d="M1084.3 578.4h35.9"/><path id="XMLID_801_" class="st2" d="M730.6 43.8h35.9"/><path id="XMLID_800_" class="st2" d="M822.7 113.1l25.4 25.4"/><path id="XMLID_799_" class="st2" d="M612.8 553.1l25.3 25.3"/><path id="XMLID_798_" class="st2" d="M1102.2 293.1l25.4 25.3"/><path id="XMLID_797_" class="st5" d="M919.1 435.8l-10.5 18.1-10.5-18.2-10.5-18.1h42z"/><path id="XMLID_796_" class="st5" d="M884.4 213.8l-10.5 18.1-10.5-18.2-10.5-18.1h42z"/><path id="XMLID_795_" class="st5" d="M1004.7 145.6l-10.5 18.1-10.5-18.1-10.4-18.2h41.9z"/><path id="XMLID_794_" class="st5" d="M1073.9 285l5.4 20.3-20.2-5.5-20.3-5.4 14.9-14.8 14.8-14.9z"/><path id="XMLID_793_" class="st5" d="M729 520.3l5.4 20.3-20.2-5.5-20.3-5.4 14.8-14.8 14.9-14.9z"/><path id="XMLID_792_" class="st5" d="M714.6 82.4l5.5 20.3-20.3-5.5-20.3-5.4L694.4 77l14.8-14.9z"/><path id="XMLID_790_" class="st5" d="M714.2 288.1l18.1 10.5-18.1 10.5-18.2 10.5v-42z"/><circle id="XMLID_789_" class="st5" cx="938.6" cy="322.5" r="15.9"/><circle id="XMLID_788_" class="st5" cx="896.7" cy="516.7" r="15.9"/><circle id="XMLID_787_" class="st5" cx="868.4" cy="30.4" r="15.9"/><path id="XMLID_786_" class="st5" d="M926.8 54.2c0 8.8 7.1 15.9 15.9 15.9s15.9-7.1 15.9-15.9"/><path id="XMLID_785_" class="st5" d="M799.8 298.6c0 8.8 7.1 15.9 15.9 15.9s15.9-7.1 15.9-15.9"/><path id="XMLID_784_" class="st5" d="M632.4 427.8c0 8.8 7.1 15.9 15.8 15.9 8.7 0 15.8-7.1 15.8-15.9"/><path id="XMLID_783_" class="st5" d="M1033.5 401.7c-8.8 0-15.9 7.1-15.9 15.8 0 8.7 7.1 15.8 15.9 15.8"/><path id="XMLID_782_" class="st5" d="M650.4 30.5c-8.8 0-15.9 7.1-15.9 15.8 0 8.7 7.1 15.8 15.9 15.8"/><path id="XMLID_781_" class="st5" d="M821.1 536.6c-8.8 0-15.9 7.1-15.9 15.8s7.1 15.8 15.9 15.8"/><circle id="XMLID_780_" class="st5" cx="642.4" cy="197.8" r="15.9"/><circle id="XMLID_779_" class="st5" cx="1133.1" cy="179.7" r="15.9"/><path id="XMLID_778_" class="st5" d="M1105 401.7h31.7v31.7H1105z"/><path id="XMLID_777_" class="st5" d="M747.1 385.9h31.7v31.7h-31.7z"/><path id="XMLID_776_" class="st5" d="M745.5 183.8h31.7v31.7h-31.7z"/><path id="XMLID_775_" class="st5" d="M1105 30.5h31.7v31.7H1105z"/><g id="XMLID_768_" class="st3"><path id="XMLID_773_" class="st4" d="M928.2 246.4c-6.9 0-5.7 12.3-14.5 12.3"/><path id="XMLID_772_" class="st4" d="M957.3 246.4c-6.9 0-5.7 12.3-14.5 12.3"/><path id="XMLID_771_" class="st4" d="M928.2 246.4c6.9 0 5.7 12.3 14.5 12.3"/><path id="XMLID_769_" class="st4" d="M957.3 246.4c6.9 0 5.7 12.3 14.5 12.3"/></g><g id="XMLID_762_" class="st3"><path id="XMLID_767_" class="st4" d="M1011 18.1c-6.9 0-5.7 12.3-14.5 12.3"/><path id="XMLID_766_" class="st4" d="M1040.1 18.1c-6.9 0-5.7 12.3-14.5 12.3"/><path id="XMLID_765_" class="st4" d="M1011 18.1c6.9 0 5.7 12.3 14.5 12.3"/><path id="XMLID_763_" class="st4" d="M1040.1 18.1c6.9 0 5.7 12.3 14.5 12.3"/></g><g id="XMLID_756_" class="st3"><path id="XMLID_761_" class="st4" d="M1050.7 347.2c-6.9 0-5.7 12.3-14.5 12.3"/><path id="XMLID_760_" class="st4" d="M1079.8 347.2c-6.9 0-5.7 12.3-14.5 12.3"/><path id="XMLID_759_" class="st4" d="M1050.7 347.2c6.9 0 5.7 12.3 14.5 12.3"/><path id="XMLID_757_" class="st4" d="M1079.8 347.2c6.9 0 5.7 12.3 14.5 12.3"/></g><g id="XMLID_750_" class="st3"><path id="XMLID_755_" class="st4" d="M646.4 362c-6.9 0-5.7 12.3-14.5 12.3"/><path id="XMLID_754_" class="st4" d="M675.5 362c-6.9 0-5.7 12.3-14.5 12.3"/><path id="XMLID_753_" class="st4" d="M646.4 362c6.9 0 5.7 12.3 14.5 12.3"/><path id="XMLID_751_" class="st4" d="M675.5 362c6.9 0 5.7 12.3 14.5 12.3"/></g><g id="XMLID_738_" class="st3"><path id="XMLID_743_" class="st4" d="M841.5 374c0-6.9-12.3-5.7-12.3-14.5"/><path id="XMLID_742_" class="st4" d="M841.5 403c0-6.9-12.3-5.7-12.3-14.5"/><path id="XMLID_741_" class="st4" d="M841.5 374c0 6.9-12.3 5.7-12.3 14.5"/><path id="XMLID_739_" class="st4" d="M841.5 403c0 6.9-12.3 5.7-12.3 14.5"/></g><g id="XMLID_732_" class="st3"><path id="XMLID_737_" class="st4" d="M1083.1 131c0-6.9-12.3-5.7-12.3-14.5"/><path id="XMLID_736_" class="st4" d="M1083.1 160.1c0-6.9-12.3-5.7-12.3-14.5"/><path id="XMLID_735_" class="st4" d="M1083.1 131c0 6.9-12.3 5.7-12.3 14.5"/><path id="XMLID_733_" class="st4" d="M1083.1 160.1c0 6.9-12.3 5.7-12.3 14.5"/></g><g id="XMLID_726_" class="st3"><path id="XMLID_731_" class="st4" d="M783.3 108.1c0-6.9-12.3-5.7-12.3-14.5"/><path id="XMLID_730_" class="st4" d="M783.3 137.2c0-6.9-12.3-5.7-12.3-14.5"/><path id="XMLID_729_" class="st4" d="M783.3 108.1c0 6.9-12.3 5.7-12.3 14.5"/><path id="XMLID_727_" class="st4" d="M783.3 137.2c0 6.9-12.3 5.7-12.3 14.5"/></g><path id="XMLID_725_" class="st5" d="M963.1 213.7h35.8"/><path id="XMLID_659_" class="st5" d="M610.4 317.4h35.9"/><path id="XMLID_658_" class="st5" d="M965.7 484.1h35.9"/><path id="XMLID_656_" class="st5" d="M1107.1 565.1h35.9"/><path id="XMLID_648_" class="st5" d="M753.4 30.5h35.9"/><path id="XMLID_646_" class="st5" d="M845.5 99.8l25.4 25.3"/><path id="XMLID_643_" class="st5" d="M635.6 539.7l25.3 25.4"/><path id="XMLID_642_" class="st5" d="M1125.1 279.7l25.3 25.4"/><path id="XMLID_620_" class="st2" d="M914.2 142.2c-2.9-1.8-6.8-1-8.6 2-1.8 2.9-1 6.8 2 8.6 2.9 1.8 6.8 1 8.6-2 1.8-2.9.9-6.8-2-8.6z"/><path id="XMLID_619_" class="st2" d="M864.8 314.6c-2.9-1.8-6.8-1-8.6 2-1.8 2.9-1 6.8 2 8.6 2.9 1.8 6.8 1 8.6-2 1.8-2.9.9-6.8-2-8.6z"/><path id="XMLID_618_" class="st2" d="M638.9 261.6c-2.9-1.8-6.8-1-8.6 2-1.8 2.9-1 6.8 2 8.6 2.9 1.8 6.8 1 8.6-2 1.8-2.9.9-6.8-2-8.6z"/><path id="XMLID_617_" class="st2" d="M703.1 458.9c-2.9-1.8-6.8-1-8.6 2-1.8 2.9-1 6.8 2 8.6 2.9 1.8 6.8 1 8.6-2 1.8-2.9 1-6.8-2-8.6z"/><path id="XMLID_616_" class="st2" d="M1047.9 462c-2.9-1.8-6.8-1-8.6 2-1.8 2.9-1 6.8 2 8.6 2.9 1.8 6.8 1 8.6-2 1.8-2.9.9-6.8-2-8.6z"/><path id="XMLID_587_" class="st2" d="M1136.5 238.7c-2.9-1.8-6.8-1-8.6 2-1.8 2.9-1 6.8 2 8.6 2.9 1.8 6.8 1 8.6-2 1.8-2.9.9-6.8-2-8.6z"/><g id="XMLID_722_"><path id="XMLID_724_" class="st2" d="M1457.8 8.3l-14.3 15.3"/><path id="XMLID_723_" class="st2" d="M1458.3 23.1L1443 8.8"/></g><g id="XMLID_719_"><path id="XMLID_721_" class="st2" d="M1535.6 188.3l-14.3 15.2"/><path id="XMLID_720_" class="st2" d="M1536.1 203.1l-15.3-14.3"/></g><g id="XMLID_716_"><path id="XMLID_718_" class="st2" d="M1705.4 113.9l-14.3 15.3"/><path id="XMLID_717_" class="st2" d="M1705.9 128.7l-15.3-14.3"/></g><g id="XMLID_713_"><path id="XMLID_715_" class="st2" d="M1843.7 125.8l-14.3 15.2"/><path id="XMLID_714_" class="st2" d="M1844.2 140.5l-15.2-14.3"/></g><path id="XMLID_712_" class="st2" d="M1481.1 262.7l-18.2 10.5 18.2 10.5 18.1 10.4v-41.9z"/><path id="XMLID_711_" class="st2" d="M1703.1 297.4l-18.2 10.5 18.2 10.5 18.1 10.5v-42z"/><path id="XMLID_710_" class="st2" d="M1771.2 177.1l-18.1 10.5 18.1 10.4 18.2 10.5v-41.9z"/><path id="XMLID_709_" class="st2" d="M1631.8 107.9l-20.3-5.5 5.5 20.3 5.4 20.2 14.8-14.8 14.9-14.8z"/><path id="XMLID_708_" class="st2" d="M1419.2 86.6l-10.5-18.2-10.5 18.2-10.5 18.2h42z"/><circle id="XMLID_707_" class="st2" cx="1594.4" cy="243.2" r="15.9"/><circle id="XMLID_706_" class="st2" cx="1416.8" cy="323.6" r="15.9"/><circle id="XMLID_705_" class="st2" cx="1886.4" cy="313.4" r="15.9"/><path id="XMLID_704_" class="st2" d="M1862.6 254.9c-8.8 0-15.9-7.1-15.9-15.9s7.1-15.9 15.9-15.9"/><path id="XMLID_703_" class="st2" d="M1515.1 148.2c0 8.8-7.1 15.9-15.8 15.9-8.7 0-15.8-7.1-15.8-15.9"/><circle id="XMLID_702_" class="st2" cx="1737.2" cy="48.7" r="15.9"/><path id="XMLID_701_" class="st2" d="M1483.4 45.1h31.7v31.7h-31.7z"/><path id="XMLID_700_" class="st2" d="M1854.7 45.1h31.7v31.7h-31.7z"/><path id="XMLID_699_" class="st2" d="M1348.6 176.4h31.7v31.7h-31.7z"/><g id="XMLID_693_"><path id="XMLID_698_" class="st2" d="M1670.5 253.6c0 6.9-12.3 5.7-12.3 14.5"/><path id="XMLID_697_" class="st2" d="M1670.5 224.5c0 6.9-12.3 5.7-12.3 14.5"/><path id="XMLID_696_" class="st2" d="M1670.5 253.6c0-6.9-12.3-5.7-12.3-14.5"/><path id="XMLID_694_" class="st2" d="M1670.5 224.5c0-6.9-12.3-5.7-12.3-14.5"/></g><g id="XMLID_687_"><path id="XMLID_692_" class="st2" d="M1898.7 170.7c0 6.9-12.3 5.7-12.3 14.5"/><path id="XMLID_691_" class="st2" d="M1898.7 141.7c0 6.9-12.3 5.7-12.3 14.5"/><path id="XMLID_690_" class="st2" d="M1898.7 170.7c0-6.9-12.3-5.7-12.3-14.5"/><path id="XMLID_688_" class="st2" d="M1898.7 141.7c0-6.9-12.3-5.7-12.3-14.5"/></g><g id="XMLID_681_"><path id="XMLID_686_" class="st2" d="M1569.6 131.1c0 6.9-12.3 5.7-12.3 14.5"/><path id="XMLID_685_" class="st2" d="M1569.6 102c0 6.9-12.3 5.7-12.3 14.5"/><path id="XMLID_684_" class="st2" d="M1569.6 131.1c0-6.9-12.3-5.7-12.3-14.5"/><path id="XMLID_682_" class="st2" d="M1569.6 102c0-6.9-12.3-5.7-12.3-14.5"/></g><g id="XMLID_675_"><path id="XMLID_680_" class="st2" d="M1390.8 251.2c6.9 0 5.7 12.3 14.5 12.3"/><path id="XMLID_679_" class="st2" d="M1361.7 251.2c6.9 0 5.7 12.3 14.5 12.3"/><path id="XMLID_678_" class="st2" d="M1390.8 251.2c-6.9 0-5.7 12.3-14.5 12.3"/><path id="XMLID_676_" class="st2" d="M1361.7 251.2c-6.9 0-5.7 12.3-14.5 12.3"/></g><g id="XMLID_669_"><path id="XMLID_674_" class="st2" d="M1785.8 98.7c6.9 0 5.7 12.3 14.5 12.3"/><path id="XMLID_673_" class="st2" d="M1756.7 98.7c6.9 0 5.7 12.3 14.5 12.3"/><path id="XMLID_672_" class="st2" d="M1785.8 98.7c-6.9 0-5.7 12.3-14.5 12.3"/><path id="XMLID_670_" class="st2" d="M1756.7 98.7c-6.9 0-5.7 12.3-14.5 12.3"/></g><path id="XMLID_668_" class="st2" d="M1703.1 218.7v-35.8"/><path id="XMLID_667_" class="st2" d="M1432.7 216v-35.8"/><path id="XMLID_666_" class="st2" d="M1351.7 74.7V38.8"/><path id="XMLID_665_" class="st2" d="M1817.1 336.2l-25.4-25.3"/><path id="XMLID_664_" class="st2" d="M1637.1 56.7l-25.3-25.3"/><g id="XMLID_583_" class="st3"><path id="XMLID_663_" class="st4" d="M1494.4 239.9l-18.1 10.5 18.1 10.5 18.2 10.4v-41.9z"/><path id="XMLID_662_" class="st4" d="M1716.4 274.6l-18.1 10.5 18.1 10.5 18.2 10.4v-41.9z"/><path id="XMLID_661_" class="st4" d="M1784.6 154.3l-18.2 10.5 18.2 10.4 18.2 10.5v-41.9z"/><path id="XMLID_660_" class="st4" d="M1645.2 85l-20.3-5.4 5.4 20.3 5.5 20.2 14.8-14.8 14.8-14.8z"/><path id="XMLID_657_" class="st4" d="M1432.5 63.8L1422 45.6l-10.5 18.2-10.4 18.2h20.9l21-.1z"/><circle id="XMLID_655_" class="st4" cx="1607.7" cy="220.3" r="15.9"/><circle id="XMLID_654_" class="st4" cx="1430.1" cy="300.8" r="15.9"/><circle id="XMLID_653_" class="st4" cx="1899.8" cy="290.6" r="15.9"/><path id="XMLID_652_" class="st4" d="M1876 232.1c-8.8 0-15.9-7.1-15.9-15.9s7.1-15.9 15.9-15.9"/><path id="XMLID_651_" class="st4" d="M1631.6 359.1c-8.8 0-15.9-7.1-15.9-15.9s7.1-15.9 15.9-15.9"/><path id="XMLID_650_" class="st4" d="M1502.4 526.6c-8.8 0-15.9-7.1-15.9-15.8 0-8.7 7.1-15.8 15.9-15.8"/><path id="XMLID_649_" class="st4" d="M1528.4 125.4c0 8.8-7.1 15.9-15.8 15.9-8.7 0-15.8-7.1-15.8-15.9"/><path id="XMLID_647_" class="st4" d="M1393.6 337.9c0 8.8-7.1 15.9-15.8 15.9-8.7 0-15.8-7.1-15.8-15.9"/><circle id="XMLID_645_" class="st4" cx="1750.5" cy="25.8" r="15.9"/><path id="XMLID_644_" class="st4" d="M1496.8 22.3h31.7V54h-31.7z"/><path id="XMLID_641_" class="st4" d="M1868.1 22.3h31.7V54h-31.7z"/><path id="XMLID_640_" class="st4" d="M1362 153.6h31.7v31.7H1362z"/><g id="XMLID_634_"><path id="XMLID_639_" class="st4" d="M1683.8 230.7c0 6.9-12.3 5.7-12.3 14.5"/><path id="XMLID_638_" class="st4" d="M1683.8 201.7c0 6.9-12.3 5.7-12.3 14.5"/><path id="XMLID_637_" class="st4" d="M1683.8 230.7c0-6.9-12.3-5.7-12.3-14.5"/><path id="XMLID_635_" class="st4" d="M1683.8 201.7c0-6.9-12.3-5.7-12.3-14.5"/></g><g id="XMLID_628_"><path id="XMLID_633_" class="st4" d="M1912 147.9c0 6.9-12.3 5.7-12.3 14.5"/><path id="XMLID_632_" class="st4" d="M1912 118.9c0 6.9-12.3 5.7-12.3 14.5"/><path id="XMLID_631_" class="st4" d="M1912 147.9c0-6.9-12.3-5.7-12.3-14.5"/><path id="XMLID_629_" class="st4" d="M1912 118.9c0-6.9-12.3-5.7-12.3-14.5"/></g><g id="XMLID_622_"><path id="XMLID_627_" class="st4" d="M1583 108.3c0 6.9-12.3 5.7-12.3 14.5"/><path id="XMLID_626_" class="st4" d="M1583 79.2c0 6.9-12.3 5.7-12.3 14.5"/><path id="XMLID_625_" class="st4" d="M1583 108.3c0-6.9-12.3-5.7-12.3-14.5"/><path id="XMLID_623_" class="st4" d="M1583 79.2c0-6.9-12.3-5.7-12.3-14.5"/></g><g id="XMLID_610_"><path id="XMLID_615_" class="st4" d="M1404.1 228.3c6.9 0 5.7 12.3 14.5 12.3"/><path id="XMLID_614_" class="st4" d="M1375.1 228.3c6.9 0 5.7 12.3 14.5 12.3"/><path id="XMLID_613_" class="st4" d="M1404.1 228.3c-6.9 0-5.7 12.3-14.5 12.3"/><path id="XMLID_611_" class="st4" d="M1375.1 228.3c-6.9 0-5.7 12.3-14.5 12.3"/></g><g id="XMLID_604_"><path id="XMLID_609_" class="st4" d="M1556.2 317.5c6.9 0 5.7 12.3 14.5 12.3"/><path id="XMLID_608_" class="st4" d="M1527.1 317.5c6.9 0 5.7 12.3 14.5 12.3"/><path id="XMLID_607_" class="st4" d="M1556.2 317.5c-6.9 0-5.7 12.3-14.5 12.3"/><path id="XMLID_605_" class="st4" d="M1527.1 317.5c-6.9 0-5.7 12.3-14.5 12.3"/></g><g id="XMLID_598_"><path id="XMLID_603_" class="st4" d="M1799.1 75.8c6.9 0 5.7 12.3 14.5 12.3"/><path id="XMLID_602_" class="st4" d="M1770.1 75.8c6.9 0 5.7 12.3 14.5 12.3"/><path id="XMLID_601_" class="st4" d="M1799.1 75.8c-6.9 0-5.7 12.3-14.5 12.3"/><path id="XMLID_599_" class="st4" d="M1770.1 75.8c-6.9 0-5.7 12.3-14.5 12.3"/></g><g id="XMLID_592_"><path id="XMLID_597_" class="st4" d="M1822.1 375.6c6.9 0 5.7 12.3 14.5 12.3"/><path id="XMLID_596_" class="st4" d="M1793 375.6c6.9 0 5.7 12.3 14.5 12.3"/><path id="XMLID_595_" class="st4" d="M1822.1 375.6c-6.9 0-5.7 12.3-14.5 12.3"/><path id="XMLID_593_" class="st4" d="M1793 375.6c-6.9 0-5.7 12.3-14.5 12.3"/></g><path id="XMLID_591_" class="st4" d="M1716.4 195.9V160"/><path id="XMLID_590_" class="st4" d="M1612.8 548.5v-35.8"/><path id="XMLID_589_" class="st4" d="M1446.1 193.2v-35.8"/><path id="XMLID_588_" class="st4" d="M1365.1 51.8V16"/><path id="XMLID_586_" class="st4" d="M1830.4 313.4l-25.3-25.3"/><path id="XMLID_585_" class="st4" d="M1390.5 523.4l-25.4-25.4"/><path id="XMLID_584_" class="st4" d="M1650.5 33.9l-25.4-25.4"/></g><path id="XMLID_582_" class="st2" d="M1788 244.8c1.8 2.9 1 6.8-2 8.6-2.9 1.8-6.8 1-8.6-2-1.8-2.9-1-6.8 2-8.6 2.9-1.8 6.8-1 8.6 2z"/><path id="XMLID_581_" class="st2" d="M1615.6 294.2c1.8 2.9 1 6.8-2 8.6-2.9 1.8-6.8 1-8.6-2-1.8-2.9-1-6.8 2-8.6 2.9-1.8 6.7-1 8.6 2z"/><path id="XMLID_580_" class="st2" d="M1468.2 111.1c1.8 2.9 1 6.8-2 8.6-2.9 1.8-6.8 1-8.6-2-1.8-2.9-1-6.8 2-8.6 2.9-1.9 6.8-1 8.6 2z"/><path id="XMLID_579_" class="st2" d="M1691.5 22.5c1.8 2.9 1 6.8-2 8.6-2.9 1.8-6.8 1-8.6-2-1.8-2.9-1-6.8 2-8.6 2.9-1.8 6.8-.9 8.6 2z"/><g id="XMLID_1014_"><path id="XMLID_945_" class="st2" d="M116.6 880.2l-14.3 15.3"/><path id="XMLID_944_" class="st2" d="M117.1 895l-15.3-14.3"/></g><g id="XMLID_1011_"><path id="XMLID_943_" class="st2" d="M336 862.7L321.7 878"/><path id="XMLID_942_" class="st2" d="M336.5 877.5l-15.2-14.3"/></g><g id="XMLID_1119_"><path id="XMLID_1121_" class="st2" d="M1334.7 362l-14.3 15.2"/><path id="XMLID_1120_" class="st2" d="M1335.1 376.7l-15.2-14.3"/></g><g id="XMLID_1008_"><path id="XMLID_941_" class="st2" d="M458.6 1048.3l-14.3 15.2"/><path id="XMLID_940_" class="st2" d="M459.1 1063.1l-15.2-14.3"/></g><g id="XMLID_1005_"><path id="XMLID_939_" class="st2" d="M95.7 1054.9l-14.3 15.3"/><path id="XMLID_938_" class="st2" d="M96.2 1069.7l-15.3-14.3"/></g><path id="XMLID_937_" class="st2" d="M54.9 957l-20.2-5.5 5.4 20.3 5.5 20.3 14.8-14.9 14.8-14.8z"/><path id="XMLID_936_" class="st2" d="M492.9 971.3l-20.3-5.4 5.4 20.3 5.5 20.2 14.8-14.8 14.8-14.9z"/><path id="XMLID_935_" class="st2" d="M287.1 971.8l-10.5-18.2-10.4 18.2-10.5 18.2h21l20.9-.1z"/><path id="XMLID_934_" class="st2" d="M276.7 886.1c-8.8 0-15.9-7.1-15.9-15.9s7.1-15.9 15.9-15.9"/><path id="XMLID_933_" class="st2" d="M147.5 1053.6c-8.8 0-15.9-7.1-15.9-15.8s7.1-15.8 15.9-15.8"/><path id="XMLID_932_" class="st2" d="M544.8 1035.6c0 8.8-7.1 15.9-15.8 15.9s-15.8-7.1-15.8-15.9"/><path id="XMLID_931_" class="st2" d="M38.7 864.9c0 8.8-7.1 15.9-15.8 15.9-8.7 0-15.8-7.1-15.8-15.9"/><circle id="XMLID_930_" class="st2" cx="377.4" cy="1043.6" r="15.9"/><path id="XMLID_929_" class="st2" d="M157.7 907.2h31.7v31.7h-31.7z"/><path id="XMLID_928_" class="st2" d="M359.8 908.8h31.7v31.7h-31.7z"/><g id="XMLID_989_"><path id="XMLID_927_" class="st2" d="M213.3 1039.6c0 6.9-12.3 5.7-12.3 14.5"/><path id="XMLID_926_" class="st2" d="M213.3 1010.5c0 6.9-12.3 5.7-12.3 14.5"/><path id="XMLID_925_" class="st2" d="M213.3 1039.6c0-6.9-12.3-5.7-12.3-14.5"/><path id="XMLID_923_" class="st2" d="M213.3 1010.5c0-6.9-12.3-5.7-12.3-14.5"/></g><g id="XMLID_983_"><path id="XMLID_922_" class="st2" d="M467.1 902.6c6.9 0 5.7 12.3 14.5 12.3"/><path id="XMLID_921_" class="st2" d="M438 902.6c6.9 0 5.7 12.3 14.5 12.3"/><path id="XMLID_920_" class="st2" d="M467.1 902.6c-6.9 0-5.7 12.3-14.5 12.3"/><path id="XMLID_918_" class="st2" d="M438 902.6c-6.9 0-5.7 12.3-14.5 12.3"/></g><path id="XMLID_917_" class="st2" d="M257.9 1075.5v-35.8"/><path id="XMLID_916_" class="st2" d="M544.8 932.5v-35.8"/><path id="XMLID_915_" class="st2" d="M35.5 1050.4L10.2 1025"/><path id="XMLID_914_" class="st5" d="M68.3 934.1L48 928.7l5.5 20.3 5.4 20.2 14.8-14.8 14.9-14.8z"/><path id="XMLID_913_" class="st5" d="M506.2 948.5l-20.3-5.4 5.5 20.2 5.4 20.3 14.9-14.8 14.8-14.9z"/><path id="XMLID_912_" class="st5" d="M300.5 949L290 930.8 279.5 949 269 967.2l21-.1h21z"/><path id="XMLID_1117_" class="st2" d="M742.3 857.3l18.1-10.5-18.2-10.5-18.1-10.5v42z"/><path id="XMLID_1116_" class="st5" d="M765.1 870.6l18.1-10.5-18.1-10.4-18.2-10.5v41.9z"/><path id="XMLID_911_" class="st5" d="M290 863.3c-8.8 0-15.9-7.1-15.9-15.9s7.1-15.9 15.9-15.9"/><path id="XMLID_910_" class="st5" d="M160.8 1030.7c-8.8 0-15.9-7.1-15.9-15.8 0-8.7 7.1-15.8 15.9-15.8"/><path id="XMLID_909_" class="st5" d="M558.1 1012.8c0 8.8-7.1 15.9-15.8 15.9-8.7 0-15.8-7.1-15.8-15.9"/><path id="XMLID_1114_" class="st2" d="M744.9 768.4c0 8.8-7.1 15.9-15.8 15.9-8.7 0-15.8-7.1-15.8-15.9"/><path id="XMLID_1113_" class="st5" d="M758.2 745.6c0 8.8-7.1 15.9-15.8 15.9-8.7 0-15.8-7.1-15.8-15.9"/><path id="XMLID_908_" class="st5" d="M52.1 842c0 8.8-7.1 15.9-15.8 15.9s-15.8-7.1-15.8-15.9"/><circle id="XMLID_907_" class="st5" cx="390.8" cy="1020.8" r="15.9"/><path id="XMLID_906_" class="st5" d="M171 884.4h31.7v31.7H171z"/><path id="XMLID_905_" class="st5" d="M373.1 886h31.7v31.7h-31.7z"/><g id="XMLID_964_" class="st3"><path id="XMLID_904_" class="st4" d="M226.6 1016.7c0 6.9-12.3 5.7-12.3 14.5"/><path id="XMLID_903_" class="st4" d="M226.6 987.7c0 6.9-12.3 5.7-12.3 14.5"/><path id="XMLID_871_" class="st4" d="M226.6 1016.7c0-6.9-12.3-5.7-12.3-14.5"/><path id="XMLID_854_" class="st4" d="M226.6 987.7c0-6.9-12.3-5.7-12.3-14.5"/></g><g id="XMLID_958_" class="st3"><path id="XMLID_829_" class="st4" d="M214.6 821.7c6.9 0 5.7 12.3 14.5 12.3"/><path id="XMLID_828_" class="st4" d="M185.6 821.7c6.9 0 5.7 12.3 14.5 12.3"/><path id="XMLID_827_" class="st4" d="M214.6 821.7c-6.9 0-5.7 12.3-14.5 12.3"/><path id="XMLID_825_" class="st4" d="M185.6 821.7c-6.9 0-5.7 12.3-14.5 12.3"/></g><g id="XMLID_952_" class="st3"><path id="XMLID_824_" class="st4" d="M480.5 879.8c6.9 0 5.7 12.3 14.5 12.3"/><path id="XMLID_791_" class="st4" d="M451.4 879.8c6.9 0 5.7 12.3 14.5 12.3"/><path id="XMLID_774_" class="st4" d="M480.5 879.8c-6.9 0-5.7 12.3-14.5 12.3"/><path id="XMLID_748_" class="st4" d="M451.4 879.8c-6.9 0-5.7 12.3-14.5 12.3"/></g><path id="XMLID_747_" class="st5" d="M271.2 1052.7v-35.9"/><path id="XMLID_746_" class="st5" d="M558.1 909.7v-35.8"/><g id="XMLID_1022_"><path id="XMLID_1024_" class="st2" d="M1211.5 110.6l15.2-14.3"/><path id="XMLID_1023_" class="st2" d="M1226.3 111.1L1212 95.8"/></g><g id="XMLID_1019_"><path id="XMLID_1021_" class="st2" d="M1194 330l15.2-14.3"/><path id="XMLID_1020_" class="st2" d="M1208.7 330.5l-14.3-15.3"/></g><path id="XMLID_1018_" class="st2" d="M1288.2 48.9l-5.4-20.2 20.3 5.4 20.2 5.5-14.8 14.8-14.9 14.8z"/><path id="XMLID_1017_" class="st2" d="M1309.8 453.3l-5.4-20.3 20.2 5.4 20.3 5.5-14.9 14.8-14.8 14.8z"/><path id="XMLID_1016_" class="st2" d="M1303.1 281.1l-18.2-10.5 18.2-10.4 18.1-10.5v41.9z"/><path id="XMLID_1015_" class="st2" d="M1217.4 270.6c0-8.8-7.1-15.9-15.9-15.9s-15.9 7.1-15.9 15.9"/><path id="XMLID_1013_" class="st2" d="M1200.1 45.7c8.8 0 15.9-7.1 15.9-15.8 0-8.7-7.1-15.8-15.9-15.8"/><path id="XMLID_1012_" class="st2" d="M1238.4 151.7h31.7v31.7h-31.7z"/><path id="XMLID_1010_" class="st2" d="M1240 353.7h31.7v31.7H1240z"/><g id="XMLID_1002_"><path id="XMLID_1009_" class="st2" d="M1205.6 457.6c-6.9 0-5.7 12.3-14.5 12.3"/><path id="XMLID_1007_" class="st2" d="M1234.7 457.6c-6.9 0-5.7 12.3-14.5 12.3"/><path id="XMLID_1006_" class="st2" d="M1205.6 457.6c6.9 0 5.7 12.3 14.5 12.3"/><path id="XMLID_1003_" class="st2" d="M1234.7 457.6c6.9 0 5.7 12.3 14.5 12.3"/></g><path id="XMLID_1001_" class="st2" d="M1263.8 538.8h-35.9"/><path id="XMLID_1000_" class="st5" d="M1265.4 62.3L1260 42l20.2 5.5 20.3 5.4-14.8 14.8-14.9 14.9z"/><path id="XMLID_999_" class="st5" d="M1287 466.6l-5.4-20.3 20.2 5.5 20.3 5.4-14.9 14.9-14.8 14.8z"/><path id="XMLID_998_" class="st5" d="M1280.2 294.5l-18.1-10.5 18.1-10.5 18.2-10.5v42z"/><path id="XMLID_997_" class="st5" d="M1194.6 284c0-8.8-7.1-15.9-15.9-15.9s-15.9 7.1-15.9 15.9"/><path id="XMLID_996_" class="st5" d="M1177.3 59c8.8 0 15.9-7.1 15.9-15.8s-7.1-15.8-15.9-15.8"/><path id="XMLID_995_" class="st5" d="M1215.6 165h31.7v31.7h-31.7z"/><path id="XMLID_994_" class="st5" d="M1217.2 367.1h31.7v31.7h-31.7z"/><g id="XMLID_980_" class="st3"><path id="XMLID_986_" class="st4" d="M1192.3 434.8c-6.9 0-5.7 12.3-14.5 12.3"/><path id="XMLID_985_" class="st4" d="M1221.4 434.8c-6.9 0-5.7 12.3-14.5 12.3"/><path id="XMLID_984_" class="st4" d="M1192.3 434.8c6.9 0 5.7 12.3 14.5 12.3"/><path id="XMLID_981_" class="st4" d="M1221.4 434.8c6.9 0 5.7 12.3 14.5 12.3"/></g><path id="XMLID_979_" class="st5" d="M1241 552.1h-35.9"/><path id="XMLID_745_" class="st5" d="M48.9 1027.6l-25.4-25.4"/><path id="XMLID_744_" class="st2" d="M327 1024.2c1.8 2.9 1 6.8-2 8.6-2.9 1.8-6.8 1-8.6-2-1.8-2.9-1-6.8 2-8.6 2.9-1.8 6.8-.9 8.6 2z"/><g id="XMLID_976_"><path id="XMLID_978_" class="st2" d="M1798.1 450l-14.3 15.2"/><path id="XMLID_977_" class="st2" d="M1798.6 464.8l-15.3-14.3"/></g><g id="XMLID_973_"><path id="XMLID_975_" class="st2" d="M1435.2 456.6l-14.3 15.3"/><path id="XMLID_974_" class="st2" d="M1435.7 471.4l-15.3-14.3"/></g><path id="XMLID_972_" class="st2" d="M1486.9 448.2c-8.8 0-15.9-7.1-15.9-15.8 0-8.7 7.1-15.8 15.9-15.8"/><path id="XMLID_971_" class="st2" d="M1884.3 430.3c0 8.8-7.1 15.9-15.8 15.9s-15.8-7.1-15.8-15.9"/><circle id="XMLID_970_" class="st2" cx="1716.9" cy="438.3" r="15.9"/><g id="XMLID_963_"><path id="XMLID_969_" class="st2" d="M1552.7 434.3c0 6.9-12.3 5.7-12.3 14.5"/><path id="XMLID_968_" class="st2" d="M1552.7 405.2c0 6.9-12.3 5.7-12.3 14.5"/><path id="XMLID_967_" class="st2" d="M1552.7 434.3c0-6.9-12.3-5.7-12.3-14.5"/><path id="XMLID_965_" class="st2" d="M1552.7 405.2c0-6.9-12.3-5.7-12.3-14.5"/></g><path id="XMLID_962_" class="st2" d="M1597.3 470.2v-35.8"/><path id="XMLID_961_" class="st2" d="M1375 445.1l-25.4-25.4"/><path id="XMLID_960_" class="st5" d="M1500.3 425.4c-8.8 0-15.9-7.1-15.9-15.8 0-8.7 7.1-15.8 15.9-15.8"/><path id="XMLID_959_" class="st5" d="M1897.6 407.5c0 8.8-7.1 15.9-15.8 15.9s-15.8-7.1-15.8-15.9"/><circle id="XMLID_957_" class="st5" cx="1730.3" cy="415.4" r="15.9"/><g id="XMLID_950_" class="st3"><path id="XMLID_956_" class="st4" d="M1566.1 411.4c0 6.9-12.3 5.7-12.3 14.5"/><path id="XMLID_955_" class="st4" d="M1566.1 382.4c0 6.9-12.3 5.7-12.3 14.5"/><path id="XMLID_954_" class="st4" d="M1566.1 411.4c0-6.9-12.3-5.7-12.3-14.5"/><path id="XMLID_951_" class="st4" d="M1566.1 382.4c0-6.9-12.3-5.7-12.3-14.5"/></g><path id="XMLID_949_" class="st5" d="M1610.7 447.4v-35.9"/><path id="XMLID_948_" class="st5" d="M1388.4 422.3l-25.4-25.4"/><path id="XMLID_947_" class="st2" d="M1666.5 418.9c1.8 2.9 1 6.8-2 8.6-2.9 1.8-6.8 1-8.6-2-1.8-2.9-1-6.8 2-8.6 2.9-1.8 6.8-.9 8.6 2z"/><path id="XMLID_2_" class="st2" d="M129.7 960c1.8 2.9 1 6.8-2 8.6-2.9 1.8-6.8 1-8.6-2-1.8-2.9-1-6.8 2-8.6 2.9-1.8 6.8-.9 8.6 2z"/><g id="XMLID_1071_"><path id="XMLID_1073_" class="st2" d="M448.6 636.1l14.3 15.3"/><path id="XMLID_1072_" class="st2" d="M448.1 650.9l15.2-14.3"/></g><g id="XMLID_1068_"><path id="XMLID_1070_" class="st2" d="M229.1 618.6l14.3 15.3"/><path id="XMLID_1069_" class="st2" d="M228.7 633.4l15.2-14.3"/></g><g id="XMLID_1065_"><path id="XMLID_1067_" class="st2" d="M106.5 804.2l14.3 15.3"/><path id="XMLID_1066_" class="st2" d="M106.1 819l15.2-14.3"/></g><g id="XMLID_1062_"><path id="XMLID_1064_" class="st2" d="M469.4 810.9l14.3 15.2"/><path id="XMLID_1063_" class="st2" d="M469 825.6l15.2-14.3"/></g><path id="XMLID_1061_" class="st2" d="M510.2 712.9l20.3-5.4-5.5 20.2-5.4 20.3-14.8-14.9-14.9-14.8z"/><path id="XMLID_1060_" class="st2" d="M72.3 727.2l20.3-5.4-5.5 20.3-5.4 20.2-14.8-14.8L52 732.7z"/><path id="XMLID_1059_" class="st2" d="M278 727.7l10.5-18.1 10.5 18.1 10.5 18.2h-42z"/><path id="XMLID_1058_" class="st2" d="M288.5 642.1c8.8 0 15.9-7.1 15.9-15.9s-7.1-15.9-15.9-15.9"/><path id="XMLID_1057_" class="st2" d="M417.7 809.5c8.8 0 15.9-7.1 15.9-15.8s-7.1-15.8-15.9-15.8"/><path id="XMLID_1056_" class="st2" d="M20.4 791.5c0 8.8 7.1 15.9 15.8 15.9 8.7 0 15.8-7.1 15.8-15.9"/><path id="XMLID_1055_" class="st2" d="M526.5 620.8c0 8.8 7.1 15.9 15.8 15.9 8.7 0 15.8-7.1 15.8-15.9"/><circle id="XMLID_1054_" class="st2" cx="187.7" cy="799.5" r="15.9"/><path id="XMLID_1053_" class="st2" d="M375.8 663.1h31.7v31.7h-31.7z"/><path id="XMLID_1052_" class="st2" d="M173.7 664.7h31.7v31.7h-31.7z"/><path id="XMLID_1118_" class="st2" d="M608.2 747.1h31.7v31.7h-31.7z"/><g id="XMLID_1046_"><path id="XMLID_1051_" class="st2" d="M351.9 795.5c0 6.9 12.3 5.7 12.3 14.5"/><path id="XMLID_1050_" class="st2" d="M351.9 766.4c0 6.9 12.3 5.7 12.3 14.5"/><path id="XMLID_1049_" class="st2" d="M351.9 795.5c0-6.9 12.3-5.7 12.3-14.5"/><path id="XMLID_1047_" class="st2" d="M351.9 766.4c0-6.9 12.3-5.7 12.3-14.5"/></g><g id="XMLID_1040_"><path id="XMLID_1045_" class="st2" d="M98 658.6c-6.9 0-5.7 12.3-14.5 12.3"/><path id="XMLID_1044_" class="st2" d="M127.1 658.6c-6.9 0-5.7 12.3-14.5 12.3"/><path id="XMLID_1043_" class="st2" d="M98 658.6c6.9 0 5.7 12.3 14.5 12.3"/><path id="XMLID_1041_" class="st2" d="M127.1 658.6c6.9 0 5.7 12.3 14.5 12.3"/></g><path id="XMLID_1039_" class="st2" d="M307.3 831.5v-35.9"/><g id="XMLID_1110_"><path id="XMLID_1112_" class="st2" d="M628.2 708.4l-15.3-14.3"/><path id="XMLID_1111_" class="st2" d="M613.4 708.9l14.3-15.2"/></g><g id="XMLID_1107_"><path id="XMLID_1109_" class="st2" d="M645.7 927.9l-15.2-14.3"/><path id="XMLID_1108_" class="st2" d="M630.9 928.4l14.3-15.3"/></g><path id="XMLID_1106_" class="st2" d="M622.3 868.5c0-8.8 7.1-15.9 15.9-15.9s15.9 7.1 15.9 15.9"/><path id="XMLID_1105_" class="st2" d="M643.6 630.5c-8.8 0-15.9-7.1-15.9-15.8 0-8.7 7.1-15.8 15.9-15.8"/><g id="XMLID_1099_"><path id="XMLID_1104_" class="st2" d="M692.3 997.4c0 6.9-12.3 5.7-12.3 14.5"/><path id="XMLID_1103_" class="st2" d="M692.3 968.4c0 6.9-12.3 5.7-12.3 14.5"/><path id="XMLID_1102_" class="st2" d="M692.3 997.4c0-6.9-12.3-5.7-12.3-14.5"/><path id="XMLID_1100_" class="st2" d="M692.3 968.4c0-6.9-12.3-5.7-12.3-14.5"/></g><path id="XMLID_1098_" class="st2" d="M717.8 601.7h35.8"/><path id="XMLID_1097_" class="st5" d="M645.1 881.9c0-8.8 7.1-15.9 15.9-15.9s15.9 7.1 15.9 15.9"/><path id="XMLID_1096_" class="st5" d="M666.4 643.9c-8.8 0-15.9-7.1-15.9-15.8 0-8.7 7.1-15.8 15.9-15.8"/><path id="XMLID_1095_" class="st5" d="M592.4 762.9h31.7v31.7h-31.7z"/><path id="XMLID_1094_" fill="none" stroke="#000" stroke-width="5" stroke-miterlimit="10" d="M590.8 965h31.7v31.7h-31.7z"/><path id="XMLID_1115_" class="st5" d="M606.5 981.6h31.7v31.7h-31.7z"/><g id="XMLID_1088_" class="st3"><path id="XMLID_1093_" class="st4" d="M686.8 806.5c0 6.9-12.3 5.7-12.3 14.5"/><path id="XMLID_1092_" class="st4" d="M686.8 777.4c0 6.9-12.3 5.7-12.3 14.5"/><path id="XMLID_1091_" class="st4" d="M686.8 806.5c0-6.9-12.3-5.7-12.3-14.5"/><path id="XMLID_1089_" class="st4" d="M686.8 777.4c0-6.9-12.3-5.7-12.3-14.5"/></g><g id="XMLID_1082_" class="st3"><path id="XMLID_1087_" class="st4" d="M715.1 1010.8c0 6.9-12.3 5.7-12.3 14.5"/><path id="XMLID_1086_" class="st4" d="M715.1 981.7c0 6.9-12.3 5.7-12.3 14.5"/><path id="XMLID_1085_" class="st4" d="M715.1 1010.8c0-6.9-12.3-5.7-12.3-14.5"/><path id="XMLID_1083_" class="st4" d="M715.1 981.7c0-6.9-12.3-5.7-12.3-14.5"/></g><path id="XMLID_1081_" class="st5" d="M740.6 615h35.9"/><g id="XMLID_1078_"><path id="XMLID_1080_" class="st2" d="M704.2 698.4L689 712.7"/><path id="XMLID_1079_" class="st2" d="M689.4 697.9l14.3 15.3"/></g><g id="XMLID_1075_"><path id="XMLID_1077_" class="st2" d="M697.5 1061.3l-15.2 14.3"/><path id="XMLID_1076_" class="st2" d="M682.8 1060.8l14.3 15.3"/></g><path id="XMLID_1074_" class="st2" d="M677 899.2h35.8"/><path id="XMLID_1038_" class="st2" d="M20.4 688.5v-35.9"/><path id="XMLID_1037_" class="st2" d="M529.6 806.3l25.4-25.4"/><path id="XMLID_1036_" class="st5" d="M496.9 690.1l20.2-5.4-5.4 20.2-5.5 20.3-14.8-14.9-14.8-14.8z"/><path id="XMLID_1035_" class="st5" d="M58.9 704.4l20.3-5.4-5.4 20.3-5.5 20.2-14.8-14.8-14.8-14.9z"/><path id="XMLID_1034_" class="st5" d="M264.7 704.9l10.5-18.2 10.4 18.2 10.5 18.2h-41.9z"/><path id="XMLID_1033_" class="st5" d="M275.1 619.2c8.8 0 15.9-7.1 15.9-15.9s-7.1-15.9-15.9-15.9"/><path id="XMLID_1032_" class="st5" d="M404.3 786.7c8.8 0 15.9-7.1 15.9-15.8 0-8.7-7.1-15.8-15.9-15.8"/><path id="XMLID_1031_" class="st5" d="M7 768.7c0 8.8 7.1 15.9 15.8 15.9 8.7 0 15.8-7.1 15.8-15.9"/><path id="XMLID_1030_" class="st5" d="M513.1 598c0 8.8 7.1 15.9 15.8 15.9s15.8-7.1 15.8-15.9"/><circle id="XMLID_1029_" class="st5" cx="174.4" cy="776.7" r="15.9"/><path id="XMLID_1028_" class="st5" d="M362.5 640.3h31.7V672h-31.7z"/><path id="XMLID_1027_" class="st5" d="M160.4 641.9h31.7v31.7h-31.7z"/><g id="XMLID_990_" class="st3"><path id="XMLID_1026_" class="st4" d="M338.5 772.7c0 6.9 12.3 5.7 12.3 14.5"/><path id="XMLID_1025_" class="st4" d="M338.5 743.6c0 6.9 12.3 5.7 12.3 14.5"/><path id="XMLID_993_" class="st4" d="M338.5 772.7c0-6.9 12.3-5.7 12.3-14.5"/><path id="XMLID_991_" class="st4" d="M338.5 743.6c0-6.9 12.3-5.7 12.3-14.5"/></g><g id="XMLID_578_" class="st3"><path id="XMLID_988_" class="st4" d="M350.5 577.6c-6.9 0-5.7 12.3-14.5 12.3"/><path id="XMLID_987_" class="st4" d="M379.6 577.6c-6.9 0-5.7 12.3-14.5 12.3"/><path id="XMLID_946_" class="st4" d="M350.5 577.6c6.9 0 5.7 12.3 14.5 12.3"/><path id="XMLID_621_" class="st4" d="M379.6 577.6c6.9 0 5.7 12.3 14.5 12.3"/></g><g id="XMLID_518_" class="st3"><path id="XMLID_523_" class="st4" d="M84.7 635.8c-6.9 0-5.7 12.3-14.5 12.3"/><path id="XMLID_522_" class="st4" d="M113.7 635.8c-6.9 0-5.7 12.3-14.5 12.3"/><path id="XMLID_521_" class="st4" d="M84.7 635.8c6.9 0 5.7 12.3 14.5 12.3"/><path id="XMLID_519_" class="st4" d="M113.7 635.8c6.9 0 5.7 12.3 14.5 12.3"/></g><path id="XMLID_443_" class="st5" d="M293.9 808.6v-35.8"/><path id="XMLID_442_" class="st5" d="M7 665.6v-35.8"/><path id="XMLID_441_" class="st5" d="M516.3 783.5l25.3-25.4"/><path id="XMLID_440_" class="st2" d="M238.1 780.2c-1.8 2.9-1 6.8 2 8.6 2.9 1.8 6.8 1 8.6-2 1.8-2.9 1-6.8-2-8.6-2.9-1.9-6.7-1-8.6 2z"/><path id="XMLID_439_" class="st2" d="M435.4 715.9c-1.8 2.9-1 6.8 2 8.6 2.9 1.8 6.8 1 8.6-2 1.8-2.9 1-6.8-2-8.6-2.9-1.8-6.7-.9-8.6 2z"/></g></svg>