<?xml version="1.0" encoding="utf-8"?>
<!-- Generator: Adobe Illustrator 19.0.0, SVG Export Plug-In . SVG Version: 6.00 Build 0)  -->
<svg version="1.1" id="Capa_1" xmlns="http://www.w3.org/2000/svg" xmlns:xlink="http://www.w3.org/1999/xlink" x="0px" y="0px"
	 viewBox="0 0 90 30" style="enable-background:new 0 0 90 30;" xml:space="preserve">
<style type="text/css">
	.st0{stroke:#000000;stroke-width:0.7;}
	.st1{fill:#FFD62D;stroke:#000000;stroke-width:0.7;}
</style>
<g id="XMLID_1_">
	<g id="XMLID_29_">
		<path id="XMLID_30_" class="st0" d="M12,4.8c0.1,0,0.3,0,0.4,0.1c0.1,0.1,0.2,0.2,0.2,0.4v3.6c0,0.1,0,0.2-0.1,0.4
			c-0.1,0.1-0.2,0.2-0.4,0.2H5.5v3.6H10c0.1,0,0.3,0,0.4,0.1c0.1,0.1,0.2,0.2,0.2,0.4v3.2c0,0.1,0,0.2-0.1,0.4
			c-0.1,0.1-0.2,0.2-0.4,0.2H5.5v4.1c0,0.3-0.2,0.5-0.6,0.5H0.3c-0.1,0-0.2-0.1-0.3-0.2C0,21.7,0,21.6,0,21.5V5.3c0-0.1,0-0.1,0-0.2
			c0,0,0,0,0-0.1C0.1,5,0.2,4.9,0.2,4.9c0-0.1,0.1-0.1,0.2-0.1H12z"/>
		<path id="XMLID_32_" class="st0" d="M27.7,17c0.1,0,0.3,0,0.4,0.1c0.1,0.1,0.2,0.2,0.2,0.4v3.9c0,0.1,0,0.1,0,0.2
			c0,0.1-0.1,0.1-0.1,0.2c0,0.1-0.1,0.1-0.2,0.1c-0.1,0-0.1,0.1-0.2,0.1h-12c-0.3,0-0.5-0.2-0.5-0.5V5.3c0-0.1,0-0.3,0.1-0.4
			c0.1-0.1,0.2-0.2,0.4-0.2H20c0.1,0,0.1,0,0.2,0c0.1,0,0.1,0.1,0.2,0.1c0.1,0,0.1,0.1,0.1,0.2c0,0.1,0.1,0.1,0.1,0.2V17H27.7z"/>
		<path id="XMLID_34_" class="st0" d="M47.7,21.4c0.1,0.3,0,0.5-0.3,0.5H43c-0.4,0-0.6-0.2-0.8-0.5l-0.6-2h-4.9l-0.6,2
			c-0.1,0.3-0.4,0.5-0.8,0.5h-4.4c-0.3,0-0.4-0.2-0.3-0.5l5.7-16.1c0-0.1,0.1-0.2,0.2-0.3c0.1-0.1,0.2-0.2,0.4-0.2h4.6
			c0.1,0,0.3,0.1,0.4,0.2C41.9,5.1,42,5.2,42,5.3L47.7,21.4z M38.1,15.2h2.2l-1.1-4.4L38.1,15.2z"/>
		<path id="XMLID_37_" class="st0" d="M69.6,21.4L69.6,21.4c0,0.4-0.2,0.5-0.5,0.5h-4.4c-0.4,0-0.6-0.2-0.6-0.5l-0.6-6.7L62,21.4
			c0,0.1-0.1,0.2-0.2,0.3c-0.1,0.1-0.2,0.2-0.3,0.2h-4.1c-0.1,0-0.2,0-0.3-0.2c-0.1-0.1-0.2-0.2-0.2-0.4l-1.5-6.7l-0.6,6.7
			c0,0.3-0.2,0.5-0.6,0.5h-4.4c-0.3,0-0.5-0.2-0.5-0.5v-0.1l1.6-16.1c0-0.1,0.1-0.3,0.2-0.4c0.1-0.1,0.2-0.2,0.4-0.2h5.4
			c0.3,0,0.6,0.2,0.7,0.5l1.9,8.1l2-8.1c0.1-0.3,0.3-0.5,0.7-0.5h5.4c0.2,0,0.3,0.1,0.4,0.2C67.9,5,68,5.2,68,5.3L69.6,21.4z"/>
		<path id="XMLID_39_" class="st0" d="M88.5,21.4c0.1,0.3,0,0.5-0.3,0.5h-4.4c-0.4,0-0.6-0.2-0.8-0.5l-0.6-2h-4.9l-0.6,2
			c-0.1,0.3-0.4,0.5-0.8,0.5h-4.4c-0.3,0-0.4-0.2-0.3-0.5L77,5.3c0-0.1,0.1-0.2,0.2-0.3c0.1-0.1,0.2-0.2,0.4-0.2h4.6
			c0.1,0,0.3,0.1,0.4,0.2c0.1,0.1,0.2,0.2,0.2,0.3L88.5,21.4z M78.8,15.2H81l-1.1-4.4L78.8,15.2z"/>
	</g>
	<g id="XMLID_28_">
		<path id="XMLID_52_" class="st1" d="M13.5,3.6c0.1,0,0.3,0,0.4,0.1C13.9,3.8,14,4,14,4.1v3.6c0,0.1,0,0.2-0.1,0.4
			c-0.1,0.1-0.2,0.2-0.4,0.2H7v3.6h4.4c0.1,0,0.3,0,0.4,0.1c0.1,0.1,0.2,0.2,0.2,0.4v3.2c0,0.1,0,0.2-0.1,0.4
			c-0.1,0.1-0.2,0.2-0.4,0.2H7v4.1c0,0.3-0.2,0.5-0.6,0.5H1.8c-0.1,0-0.2-0.1-0.3-0.2c-0.1-0.1-0.1-0.2-0.1-0.3V4.1
			c0-0.1,0-0.1,0-0.2c0,0,0,0,0-0.1c0.1-0.1,0.1-0.1,0.2-0.2c0-0.1,0.1-0.1,0.2-0.1H13.5z"/>
		<path id="XMLID_50_" class="st1" d="M29.2,15.8c0.1,0,0.3,0,0.4,0.1c0.1,0.1,0.2,0.2,0.2,0.4v3.9c0,0.1,0,0.1,0,0.2
			c0,0.1-0.1,0.1-0.1,0.2c0,0.1-0.1,0.1-0.2,0.1c-0.1,0-0.1,0.1-0.2,0.1h-12c-0.3,0-0.5-0.2-0.5-0.5V4.1c0-0.1,0-0.3,0.1-0.4
			c0.1-0.1,0.2-0.2,0.4-0.2h4.3c0.1,0,0.1,0,0.2,0c0.1,0,0.1,0.1,0.2,0.1c0.1,0,0.1,0.1,0.1,0.2C22,4,22,4,22,4.1v11.7H29.2z"/>
		<path id="XMLID_47_" class="st1" d="M49.2,20.3c0.1,0.3,0,0.5-0.3,0.5h-4.4c-0.4,0-0.6-0.2-0.8-0.5l-0.6-2h-4.9l-0.6,2
			c-0.1,0.3-0.4,0.5-0.8,0.5h-4.4c-0.3,0-0.4-0.2-0.3-0.5l5.7-16.1c0-0.1,0.1-0.2,0.2-0.3c0.1-0.1,0.2-0.2,0.4-0.2h4.6
			c0.1,0,0.3,0.1,0.4,0.2c0.1,0.1,0.2,0.2,0.2,0.3L49.2,20.3z M39.5,14h2.2l-1.1-4.4L39.5,14z"/>
		<path id="XMLID_45_" class="st1" d="M71.1,20.3L71.1,20.3c0,0.4-0.2,0.5-0.5,0.5h-4.4c-0.4,0-0.6-0.2-0.6-0.5l-0.6-6.7l-1.5,6.7
			c0,0.1-0.1,0.2-0.2,0.3c-0.1,0.1-0.2,0.2-0.3,0.2h-4.1c-0.1,0-0.2,0-0.3-0.2c-0.1-0.1-0.2-0.2-0.2-0.4l-1.5-6.7l-0.6,6.7
			c0,0.3-0.2,0.5-0.6,0.5h-4.4c-0.3,0-0.5-0.2-0.5-0.5v-0.1l1.6-16.1c0-0.1,0.1-0.3,0.2-0.4c0.1-0.1,0.2-0.2,0.4-0.2h5.4
			c0.3,0,0.6,0.2,0.7,0.5l1.9,8.1l2-8.1c0.1-0.3,0.3-0.5,0.7-0.5h5.4c0.2,0,0.3,0.1,0.4,0.2c0.1,0.1,0.2,0.2,0.2,0.4L71.1,20.3z"/>
		<path id="XMLID_42_" class="st1" d="M89.9,20.3c0.1,0.3,0,0.5-0.3,0.5h-4.4c-0.4,0-0.6-0.2-0.8-0.5l-0.6-2h-4.9l-0.6,2
			c-0.1,0.3-0.4,0.5-0.8,0.5h-4.4c-0.3,0-0.4-0.2-0.3-0.5l5.7-16.1c0-0.1,0.1-0.2,0.2-0.3c0.1-0.1,0.2-0.2,0.4-0.2h4.6
			c0.1,0,0.3,0.1,0.4,0.2c0.1,0.1,0.2,0.2,0.2,0.3L89.9,20.3z M80.3,14h2.2l-1.1-4.4L80.3,14z"/>
	</g>
</g>
<g id="XMLID_55_">
	<path id="XMLID_56_" d="M2.9,24.7C3,24.7,3,24.7,2.9,24.7C3,24.8,3,24.8,2.9,24.7l-0.4,0.4c0,0,0,0,0,0c0,0,0,0,0,0c0,0,0,0-0.1,0
		c0,0,0,0-0.1,0c0,0,0,0-0.1,0c0,0-0.1,0-0.1,0c-0.1,0-0.1,0-0.2,0S2,25.1,2,25.1c0,0-0.1,0.1-0.1,0.1c0,0,0,0.1,0,0.1
		c0,0,0,0.1,0,0.1c0,0,0,0.1,0.1,0.1c0,0,0.1,0.1,0.1,0.1c0,0,0.1,0,0.2,0c0.1,0,0.1,0,0.2,0c0,0,0.1-0.1,0.1-0.1c0,0,0,0,0,0
		s0,0,0,0L3,26c0,0,0,0,0,0c0,0,0,0,0,0c-0.1,0.1-0.2,0.2-0.3,0.2c-0.1,0-0.2,0.1-0.3,0.1c-0.1,0-0.2,0-0.3,0
		c-0.1,0-0.2-0.1-0.2-0.1c-0.1,0-0.1-0.1-0.2-0.1c-0.1-0.1-0.1-0.1-0.2-0.2c0-0.1-0.1-0.2-0.1-0.2c0-0.1,0-0.2,0-0.3
		c0-0.1,0-0.2,0-0.2c0-0.1,0.1-0.2,0.1-0.2c0-0.1,0.1-0.1,0.2-0.2s0.1-0.1,0.2-0.2c0.1,0,0.2-0.1,0.2-0.1c0.1,0,0.2,0,0.3,0
		c0.1,0,0.2,0,0.2,0c0.1,0,0.1,0,0.2,0.1c0.1,0,0.1,0.1,0.2,0.1S2.9,24.7,2.9,24.7z"/>
	<path id="XMLID_58_" d="M13.3,25.4c0-0.1,0-0.2,0-0.3c0-0.1,0.1-0.2,0.1-0.2c0-0.1,0.1-0.1,0.2-0.2c0.1-0.1,0.1-0.1,0.2-0.2
		c0.1,0,0.2-0.1,0.2-0.1c0.1,0,0.2,0,0.3,0c0.1,0,0.2,0,0.3,0c0.1,0,0.2,0.1,0.2,0.1c0.1,0,0.1,0.1,0.2,0.2c0.1,0.1,0.1,0.1,0.2,0.2
		c0,0.1,0.1,0.2,0.1,0.2c0,0.1,0,0.2,0,0.3c0,0.1,0,0.2,0,0.3c0,0.1-0.1,0.2-0.1,0.2c0,0.1-0.1,0.1-0.2,0.2
		c-0.1,0.1-0.1,0.1-0.2,0.2c-0.1,0-0.2,0.1-0.2,0.1c-0.1,0-0.2,0-0.3,0c-0.1,0-0.2,0-0.3,0c-0.1,0-0.2-0.1-0.2-0.1
		c-0.1,0-0.1-0.1-0.2-0.2c-0.1-0.1-0.1-0.1-0.2-0.2c0-0.1-0.1-0.2-0.1-0.2C13.3,25.6,13.3,25.5,13.3,25.4z M13.9,25.4
		c0,0.1,0,0.1,0,0.2c0,0,0,0.1,0.1,0.1c0,0,0.1,0.1,0.1,0.1c0,0,0.1,0,0.2,0c0.1,0,0.1,0,0.2,0c0,0,0.1,0,0.1-0.1
		c0,0,0.1-0.1,0.1-0.1c0,0,0-0.1,0-0.2c0-0.1,0-0.1,0-0.2s0-0.1-0.1-0.1c0,0-0.1-0.1-0.1-0.1c0,0-0.1,0-0.2,0c-0.1,0-0.1,0-0.2,0
		c0,0-0.1,0-0.1,0.1c0,0-0.1,0.1-0.1,0.1S13.9,25.3,13.9,25.4z"/>
	<path id="XMLID_61_" d="M28,26.3L28,26.3C28,26.3,28,26.4,28,26.3l-0.5,0.1c0,0-0.1,0-0.1-0.1l-0.1-0.7l-0.2,0.7c0,0,0,0,0,0
		c0,0,0,0,0,0h-0.5c0,0,0,0,0,0c0,0,0,0,0,0l-0.2-0.7l-0.1,0.7c0,0,0,0.1-0.1,0.1h-0.5c0,0-0.1,0-0.1-0.1v0l0.2-1.8c0,0,0,0,0,0
		c0,0,0,0,0,0h0.6c0,0,0.1,0,0.1,0.1l0.2,0.9l0.2-0.9c0,0,0-0.1,0.1-0.1h0.6c0,0,0,0,0,0c0,0,0,0,0,0L28,26.3z"/>
	<path id="XMLID_63_" d="M38.5,24.5C38.5,24.5,38.5,24.5,38.5,24.5C38.6,24.5,38.6,24.5,38.5,24.5l1-0.1c0.1,0,0.1,0,0.2,0
		c0.1,0,0.1,0,0.1,0.1c0,0,0.1,0.1,0.1,0.1c0,0,0.1,0.1,0.1,0.1c0,0,0,0.1,0.1,0.2c0,0.1,0,0.1,0,0.2c0,0.1,0,0.2,0,0.2
		c0,0.1-0.1,0.1-0.1,0.2c-0.1,0.1-0.1,0.1-0.2,0.1c-0.1,0-0.2,0.1-0.2,0.1h-0.4v0.6c0,0,0,0.1-0.1,0.1h-0.5c0,0-0.1,0-0.1-0.1V24.5z
		 M39.5,25.1C39.5,25.1,39.5,25.1,39.5,25.1c0-0.1,0-0.1,0-0.1c0,0,0,0,0,0c0,0,0,0-0.1,0h-0.2v0.4h0.2c0,0,0.1,0,0.1,0c0,0,0,0,0,0
		C39.5,25.2,39.5,25.2,39.5,25.1C39.5,25.1,39.5,25.1,39.5,25.1z"/>
	<path id="XMLID_66_" d="M51.7,24.5C51.7,24.5,51.8,24.5,51.7,24.5C51.8,24.5,51.8,24.5,51.7,24.5l0.6-0.1c0,0,0,0,0,0c0,0,0,0,0,0
		v1.1c0,0.1,0,0.2,0,0.3s-0.1,0.1-0.1,0.2c0,0.1-0.1,0.1-0.1,0.1c-0.1,0-0.1,0.1-0.2,0.1c-0.1,0-0.1,0-0.2,0.1c-0.1,0-0.1,0-0.2,0
		c-0.1,0-0.1,0-0.2,0c-0.1,0-0.1,0-0.2-0.1c-0.1,0-0.1-0.1-0.2-0.1c-0.1,0-0.1-0.1-0.1-0.1c0-0.1-0.1-0.1-0.1-0.2c0-0.1,0-0.2,0-0.3
		v-1.1c0,0,0,0,0,0c0,0,0,0,0,0h0.5c0,0,0,0,0,0c0,0,0,0,0,0v1.1c0,0,0,0.1,0,0.1c0,0,0,0.1,0.1,0.1c0,0,0,0,0.1,0c0,0,0.1,0,0.1,0
		c0,0,0.1,0,0.1,0c0,0,0.1,0,0.1,0c0,0,0,0,0.1-0.1c0,0,0-0.1,0-0.1V24.5z"/>
	<path id="XMLID_68_" d="M64.5,24.5C64.5,24.5,64.5,24.5,64.5,24.5C64.5,24.5,64.5,24.5,64.5,24.5l0.1,0.5c0,0,0,0,0,0c0,0,0,0,0,0
		H64v1.3c0,0,0,0.1-0.1,0.1h-0.5c0,0-0.1,0-0.1-0.1V25h-0.5c0,0-0.1,0-0.1-0.1v-0.4c0,0,0-0.1,0.1-0.1H64.5z"/>
	<path id="XMLID_70_" d="M76.5,24.5C76.5,24.5,76.5,24.5,76.5,24.5C76.5,24.5,76.5,24.5,76.5,24.5l0.1,0.4c0,0,0,0,0,0c0,0,0,0,0,0
		h-0.8v0.3h0.5c0,0,0,0,0,0c0,0,0,0,0,0v0.3c0,0,0,0,0,0c0,0,0,0,0,0h-0.5v0.3h0.8c0,0,0,0,0,0c0,0,0,0,0,0v0.4c0,0,0,0,0,0
		c0,0,0,0,0,0c0,0,0,0,0,0h-1.3c0,0-0.1,0-0.1-0.1v-1.8c0,0,0,0,0,0c0,0,0,0,0,0H76.5z"/>
	<path id="XMLID_72_" d="M87.1,24.5C87.1,24.5,87.1,24.5,87.1,24.5C87.2,24.5,87.2,24.5,87.1,24.5l0.9-0.1c0.1,0,0.2,0,0.2,0
		c0.1,0,0.1,0.1,0.2,0.1c0.1,0.1,0.1,0.1,0.1,0.2c0,0.1,0,0.2,0,0.2c0,0.1,0,0.1,0,0.2c0,0.1,0,0.1-0.1,0.2c0,0-0.1,0.1-0.1,0.1
		c0,0-0.1,0.1-0.1,0.1l0.4,0.7c0,0,0,0,0,0c0,0,0,0,0,0h-0.5c0,0,0,0,0,0c0,0,0,0,0,0l-0.3-0.5h-0.1v0.5c0,0,0,0.1-0.1,0.1h-0.5
		c0,0-0.1,0-0.1-0.1V24.5z M88.1,25.1C88.1,25.1,88.1,25.1,88.1,25.1c0-0.1,0-0.1,0-0.1c0,0,0,0,0,0c0,0,0,0-0.1,0h-0.2v0.3H88
		c0,0,0,0,0.1,0c0,0,0,0,0,0C88.1,25.2,88.1,25.2,88.1,25.1C88.1,25.1,88.1,25.1,88.1,25.1z"/>
</g>
</svg>
